<svg width="88" height="86" viewBox="0 0 88 86" fill="none" xmlns="http://www.w3.org/2000/svg">
<path d="M47.3024 44.235L44.4443 0.0229492L50.7493 42.4873L87.0375 69.4122L47.3024 44.235Z" fill="#ED184B"/>
<path d="M40.4617 44.279L43.3197 0.0229492L37.0148 42.5295L0.726562 69.4815L40.4617 44.279Z" fill="#ED184B"/>
<path d="M43.946 48.7388L1.73047 70.5037L43.946 52.5772L86.0854 70.7982L43.946 48.7388Z" fill="#ED184B"/>
<path d="M50.0585 25.3294L47.9453 18.1064L50.0585 22.0384H76.82L70.8095 25.3294H50.0585Z" fill="#ED184B"/>
<path d="M37.6892 25.3294L39.8024 18.1064L37.6892 22.0384H10.9277L16.9382 25.3294H37.6892Z" fill="#ED184B"/>
<path d="M24.3832 48.4704L19.1845 53.912L21.5331 50.1159L8.15234 26.9399L14.0077 30.4997L24.3832 48.4704Z" fill="#ED184B"/>
<path d="M63.4473 48.4704L68.6461 53.912L66.2973 50.1159L79.6781 26.9399L73.8227 30.4997L63.4473 48.4704Z" fill="#ED184B"/>
<path d="M31.0765 61.1787L23.7646 62.96L28.2264 62.8242L41.607 86.0002L41.4522 79.1496L31.0765 61.1787Z" fill="#ED184B"/>
<path d="M56.8145 61.1787L64.1265 62.96L59.6649 62.8242L46.2842 86.0002L46.439 79.1496L56.8145 61.1787Z" fill="#ED184B"/>
</svg>
