<svg width="2473" height="2260" viewBox="0 0 2473 2260" fill="none" xmlns="http://www.w3.org/2000/svg">
<path d="M1258.81 2177.07C1859.99 2177.07 2347.34 1689.72 2347.34 1088.54C2347.34 487.354 1859.99 0 1258.81 0C657.624 0 170.27 487.354 170.27 1088.54C170.27 1689.72 657.624 2177.07 1258.81 2177.07Z" fill="white"/>
<path d="M2291.27 2208.42C2240.34 2240.01 2175.31 2236.55 2127.57 2200.44C2039.2 2133.45 1936.72 2024.14 1831.76 1907.28C1779.23 1843.84 1713.22 1806.93 1623.16 1817.32H849.816C759.847 1806.93 693.746 1843.84 641.308 1907.28C638.469 1910.48 635.63 1913.58 632.791 1916.69C530.755 2029.99 431.381 2135.22 345.493 2200.44C297.669 2236.55 232.721 2240.01 181.703 2208.42C55.5338 2130.61 18.3569 1984.39 32.5529 1804.63C32.6419 1802.94 32.8189 1801.26 32.9959 1799.48C35.9239 1762.84 41.1588 1724.86 48.1678 1685.73C48.1678 1685.56 48.1678 1685.29 48.2568 1685.11C48.7888 1682.1 49.4108 1678.99 49.9428 1675.97C83.2158 1495.5 153.753 1292.76 231.034 1095.79C253.926 1037.49 277.35 979.733 300.596 923.125C307.339 906.8 313.994 890.385 320.648 874.325L387.637 835.907L388.702 832.358L403.165 779.299C409.376 756.319 425.436 737.154 446.996 727.039C542.999 681.611 642.107 648.072 744.852 628.552C747.514 628.02 750.087 627.487 752.748 627.043C772.446 623.494 792.853 627.309 810.066 637.779L885.573 683.828C909.529 698.556 937.123 706.364 965.338 706.364H1507.73C1535.85 706.364 1563.45 698.556 1587.49 683.828L1662.91 637.779C1680.03 627.309 1700.53 623.494 1720.31 627.043C1825.72 646.385 1927.49 680.457 2025.98 727.038C2047.54 737.153 2063.51 756.318 2069.9 779.298L2085.34 835.906L2152.33 874.324C2159.42 891.448 2166.61 908.839 2173.71 926.318C2276.46 1176.26 2382.84 1450.34 2424.72 1685.29C2466.42 1918.91 2444.33 2113.93 2291.27 2208.42Z" fill="#5E6C7A"/>
<path d="M257.669 2232.67C230.994 2232.67 204.285 2225.35 180.384 2210.55C63.3532 2138.37 14.1832 2005.53 30.0622 1804.43C30.1402 1802.85 30.3112 1801.19 30.4872 1799.46C33.3242 1763.96 38.2952 1726.67 45.7072 1685.29C45.6872 1685.34 45.6432 1685.04 45.8342 1684.46C46.0932 1683.01 46.3712 1681.53 46.6452 1680.06C46.9332 1678.55 47.2212 1677.03 47.4852 1675.54C84.5062 1474.73 168.642 1247.97 228.706 1094.87C248.643 1044.11 270.752 989.232 298.281 922.174C301.391 914.645 304.482 907.101 307.563 899.581C311.162 890.785 314.751 882.022 318.339 873.365L318.666 872.576L385.526 834.231L386.307 831.636L400.75 778.64C407.176 754.863 423.646 735.227 445.936 724.773C544.276 678.235 644.696 645.034 744.383 626.094L745.584 625.852C747.845 625.398 750.057 624.953 752.337 624.575C772.645 620.908 793.621 624.844 811.365 635.639L886.878 681.691C910.467 696.195 937.596 703.861 965.34 703.861H1507.73C1535.38 703.861 1562.51 696.195 1586.19 681.693L1661.61 635.641C1679.28 624.833 1700.31 620.91 1720.76 624.579C1823.16 643.368 1926.2 677.077 2027.05 724.774C2049.18 735.16 2065.68 754.789 2072.31 778.627L2087.48 834.247L2154.31 872.575L2154.64 873.364C2161.74 890.495 2168.93 907.89 2176.02 925.376C2282.19 1183.63 2386.1 1454.39 2427.18 1684.85C2475.07 1953.12 2431.04 2125.07 2292.59 2210.55L2292.59 2210.55C2241.38 2242.31 2174.47 2239.05 2126.06 2202.43C2036.41 2134.47 1930.74 2021.22 1829.9 1908.95C1772.43 1839.54 1704.88 1810.42 1623.45 1819.8L849.817 1819.81C767.981 1810.38 700.545 1839.53 643.235 1908.88C640.486 1911.97 637.791 1914.92 635.095 1917.87L634.636 1918.38C537.527 2026.21 435.456 2135.26 347.004 2202.43C320.408 2222.51 289.065 2232.67 257.669 2232.67ZM50.6522 1685.9L50.6282 1686.17C43.2452 1727.39 38.2942 1764.52 35.4862 1799.68C35.2912 1801.61 35.1292 1803.19 35.0462 1804.75C19.3232 2003.87 67.7272 2135.19 183.015 2206.29C233.269 2237.41 296.457 2234.33 343.982 2198.44C432.102 2131.53 533.972 2022.68 630.935 1915.02L631.409 1914.5C634.08 1911.57 636.761 1908.63 639.436 1905.62C697.864 1834.94 766.809 1805.23 850.105 1814.83L1623.16 1814.81C1706.17 1805.23 1775.12 1834.95 1833.68 1905.69C1934.29 2017.69 2039.77 2130.74 2129.08 2198.45C2175.85 2233.82 2240.49 2236.98 2289.95 2206.3L2289.96 2206.3C2426.46 2122.02 2469.74 1951.74 2422.26 1685.73C2381.26 1455.74 2277.46 1185.28 2171.39 927.267C2164.41 910.053 2157.34 892.934 2150.34 876.068L2083.2 837.56L2067.49 779.957C2061.26 757.535 2045.74 739.068 2024.92 729.3C1924.46 681.785 1821.82 648.209 1719.87 629.5C1700.6 626.045 1680.85 629.747 1664.21 639.91L1588.8 685.96C1564.33 700.943 1536.3 708.863 1507.73 708.863H965.339C936.672 708.863 908.635 700.941 884.265 685.955L808.762 639.91C792.058 629.751 772.292 626.053 753.191 629.502C750.935 629.876 748.772 630.313 746.57 630.754L745.34 631.001C646.043 649.866 546.033 682.935 448.065 729.297C427.103 739.128 411.62 757.59 405.575 779.949L389.745 837.576L322.631 876.067C319.154 884.461 315.678 892.952 312.187 901.475C309.106 909 306.015 916.548 302.905 924.078C275.385 991.107 253.286 1045.96 233.364 1096.7C173.374 1249.61 89.3462 1476.06 52.4022 1676.43C52.1432 1677.92 51.8502 1679.46 51.5622 1680.99C51.2742 1682.52 50.9862 1684.04 50.7172 1685.55L50.6522 1685.9Z" fill="#0F227A"/>
<g opacity="0.55">
<path d="M2424.72 1684.04C2382.84 1449.09 2276.46 1175.01 2173.71 925.067C2166.61 907.588 2159.42 890.197 2152.33 873.072L2085.34 834.654L2069.9 778.046C2063.51 755.065 2047.54 735.901 2025.98 725.786C1927.49 679.204 1825.72 645.133 1720.31 625.791C1700.53 622.242 1680.03 626.057 1662.91 636.527L1587.49 682.576C1586.25 683.334 1584.97 683.994 1583.71 684.715C1578.08 681.388 1570.93 680.887 1564.68 684.086C1559.14 686.92 1555.59 692.028 1554.41 697.679C1539.38 702.524 1523.65 705.112 1507.72 705.112H965.337C958.187 705.112 951.079 704.601 944.058 703.613C944.828 695.768 940.871 687.893 933.424 684.085C923.714 679.12 911.806 682.967 906.835 692.68L906.543 693.251C899.319 690.229 892.291 686.705 885.573 682.574L810.066 636.525C792.854 626.056 772.446 622.24 752.748 625.789C750.087 626.232 747.514 626.765 744.852 627.297C642.107 646.817 542.999 680.356 446.996 725.784C425.436 735.899 409.376 755.064 403.165 778.044L388.702 831.103L387.637 834.652L320.648 873.07C313.993 889.13 307.339 905.545 300.596 921.87C277.349 978.478 253.925 1036.24 231.033 1094.53C153.752 1291.51 83.2138 1494.25 49.9418 1674.72C49.4098 1677.73 48.7877 1680.84 48.2557 1683.86C48.1667 1684.04 48.1667 1684.3 48.1667 1684.48C41.1577 1723.61 35.9228 1761.58 32.9938 1798.23C32.8168 1800 32.6387 1801.69 32.5497 1803.37C29.9577 1836.2 29.1008 1867.9 30.1648 1898.28C30.6188 1884.12 31.3957 1869.75 32.5497 1855.14C32.6387 1853.45 32.8168 1851.76 32.9938 1849.99C35.9218 1813.35 41.1567 1775.37 48.1667 1736.24C48.1667 1736.06 48.1667 1735.8 48.2557 1735.62C48.7877 1732.6 49.4088 1729.5 49.9418 1726.48C83.2148 1546.01 153.752 1343.27 231.033 1146.3C253.925 1088 277.348 1030.24 300.596 973.633C307.339 957.307 313.993 940.893 320.648 924.833L387.637 886.415L388.702 882.866L403.165 829.807C409.376 806.826 425.435 787.662 446.996 777.547C542.999 732.119 642.107 698.58 744.852 679.06C747.515 678.528 750.087 677.995 752.748 677.551C772.446 674.002 792.853 677.817 810.066 688.287L885.539 734.315L842.164 819.115C837.193 828.831 841.04 840.736 850.763 845.708C853.639 847.18 856.711 847.879 859.74 847.879C866.928 847.879 873.853 843.946 877.352 837.112L921.688 750.432C935.777 754.643 950.462 756.872 965.339 756.872H1507.73C1530.11 756.872 1552.13 751.85 1572.31 742.406L1620.76 837.112C1624.25 843.949 1631.18 847.879 1638.37 847.879C1641.39 847.879 1644.47 847.18 1647.34 845.708C1657.07 840.737 1660.91 828.832 1655.94 819.115L1606.61 722.663L1662.91 688.287C1680.03 677.817 1700.53 674.002 1720.32 677.551C1825.72 696.893 1927.49 730.965 2025.98 777.546C2047.54 787.661 2063.51 806.826 2069.9 829.806L2085.34 886.414L2152.33 924.832C2159.43 941.956 2166.61 959.347 2173.71 976.826C2276.46 1226.77 2382.84 1500.85 2424.72 1735.8C2434.81 1792.31 2441.12 1846.54 2442.79 1897.67C2445.04 1831.96 2438.29 1760.06 2424.72 1684.04Z" fill="white"/>
</g>
<g opacity="0.3">
<path d="M1477.8 706.366C1478.86 711.158 1479.49 713.996 1479.49 713.996L1576.55 874.414L1607.52 859.597C1664.66 746.381 1773.88 761.731 1773.88 761.731L1730.14 635.65L1727.12 628.552C1724.46 628.02 1721.89 627.487 1719.23 627.043C1699.53 623.494 1679.12 627.309 1661.91 637.779L1586.4 683.828C1562.45 698.556 1534.85 706.364 1506.64 706.364H1477.8V706.366Z" fill="#0F227A"/>
</g>
<g opacity="0.3">
<path d="M994.174 706.366C993.109 711.158 992.488 713.996 992.488 713.996L895.421 874.414L864.455 859.597C807.315 746.381 698.092 761.731 698.092 761.731L741.834 635.65L744.851 628.552C747.513 628.02 750.086 627.487 752.747 627.043C772.445 623.494 792.852 627.309 810.065 637.779L885.572 683.828C909.528 698.556 937.122 706.364 965.337 706.364H994.174V706.366Z" fill="#0F227A"/>
</g>
<path d="M2424.72 1685.29C2382.84 1450.34 2276.46 1176.26 2173.71 926.318C2166.61 908.839 2159.43 891.448 2152.33 874.324L2085.34 835.906L2085.32 835.859L1815.86 767.522C1747.09 750.083 1674.28 771.374 1625.75 823.116L1516.12 939.986C1487.76 970.212 1448.17 987.359 1406.72 987.359H1236.5H1066.27C1024.83 987.359 985.233 970.212 956.879 939.986L847.249 823.116C798.713 771.375 725.901 750.083 657.135 767.522L387.629 835.91L320.649 874.324C313.994 890.384 307.34 906.798 300.597 923.124C277.35 979.732 253.926 1037.49 231.034 1095.79C153.753 1292.76 83.2146 1495.5 49.9426 1675.97C49.4106 1678.99 48.7886 1682.1 48.2566 1685.11C48.1676 1685.29 48.1676 1685.56 48.1676 1685.73C41.1586 1724.86 35.9236 1762.84 32.9946 1799.48C32.8176 1801.26 32.6396 1802.94 32.5506 1804.63C18.3556 1984.39 55.5316 2130.61 181.701 2208.42C232.72 2240.01 297.668 2236.55 345.491 2200.44C431.379 2135.22 530.754 2029.99 632.79 1916.69C635.629 1913.58 638.468 1910.48 641.308 1907.28C693.746 1843.84 759.847 1806.93 849.816 1817.32H1623.16C1713.22 1806.93 1779.23 1843.84 1831.76 1907.28C1936.72 2024.14 2039.2 2133.45 2127.57 2200.44C2175.31 2236.55 2240.35 2240.01 2291.27 2208.42C2444.33 2113.93 2466.42 1918.91 2424.72 1685.29Z" fill="white"/>
<g opacity="0.3">
<path d="M2291.27 2208.37C2240.35 2240.01 2175.32 2236.5 2127.6 2200.43C2039.17 2133.44 1936.72 2024.09 1831.8 1907.21C1779.24 1843.83 1713.17 1806.93 1623.2 1817.34H849.795C759.819 1806.93 693.755 1843.83 641.294 1907.21C638.511 1910.41 635.625 1913.6 632.739 1916.69C530.705 2029.96 431.35 2135.19 345.497 2200.43C297.673 2236.51 232.743 2240.01 181.725 2208.37C55.5729 2130.55 18.3678 1984.41 32.5898 1804.56C32.5898 1802.91 32.7958 1801.26 33.0028 1799.51C33.4158 1794.05 33.9318 1788.58 34.5488 1783.02C48.3588 1893.2 92.9879 1981.73 181.725 2036.35C232.743 2067.99 297.673 2064.49 345.497 2028.42C431.35 1963.18 530.705 1857.95 632.739 1744.68C635.625 1741.48 638.511 1738.39 641.294 1735.2C693.755 1671.81 759.819 1634.91 849.795 1645.22H1623.2C1650.72 1642.03 1676.07 1643.37 1699.46 1648.42C1699.57 1648.52 1699.57 1648.42 1699.57 1648.42C1751.82 1601.31 1774.81 1526.08 1753.16 1456.1C1752.13 1452.9 1751.1 1449.71 1749.97 1446.61C1739.66 1418.79 1771.92 1394.77 1795.11 1413.22C1796.55 1414.35 1797.89 1415.49 1799.23 1416.62C1826.44 1439.4 1847.16 1470.32 1857.88 1507.32C1873.87 1563.55 1861.5 1622.88 1828.33 1667.86C1813.49 1687.99 1815.46 1715.61 1831.48 1734.81C1831.59 1734.94 1831.69 1735.07 1831.8 1735.2C1936.72 1852.07 2039.17 1961.42 2127.6 2028.42C2175.32 2064.49 2240.35 2067.99 2291.27 2036.35C2380.01 1981.62 2424.74 1893.09 2438.44 1782.81C2457.41 1972.45 2422.47 2127.36 2291.27 2208.37Z" fill="#0F227A"/>
</g>
<path d="M2215.36 2259.85C2178.18 2259.85 2141.1 2247.81 2109.68 2224C2018.29 2154.77 1911.5 2040.4 1809.71 1927.12C1809.44 1926.82 1809.18 1926.52 1808.92 1926.21C1757.17 1863.67 1699.24 1838.42 1626.54 1846.74C1625.42 1846.87 1624.3 1846.93 1623.17 1846.93H849.823C848.695 1846.93 847.572 1846.87 846.454 1846.74C773.778 1838.43 715.824 1863.67 664.081 1926.21C663.822 1926.52 663.559 1926.82 663.29 1927.12C561.503 2040.39 454.716 2154.76 363.319 2224C305.233 2268.01 227.826 2271.81 166.112 2233.67C12.4741 2138.74 -33.9469 1948.7 24.1831 1652.7C71.9961 1409.25 183.343 1129.08 293.294 862.968C295.799 856.904 300.242 851.842 305.936 848.578L362.293 816.239L374.549 771.478C383.157 740.052 404.94 714.066 434.31 700.184C537.332 651.505 642.65 617.098 747.347 597.916C774.32 592.965 802.083 598.141 825.535 612.464L901.018 658.597C920.378 670.428 942.605 676.68 965.3 676.68H1507.69C1530.39 676.68 1552.61 670.428 1571.97 658.597L1647.46 612.467C1670.9 598.141 1698.65 592.968 1725.65 597.916C1830.35 617.1 1935.67 651.507 2038.68 700.184C2068.06 714.068 2089.85 740.054 2098.45 771.48L2110.71 816.241L2167.06 848.577C2172.75 851.841 2177.2 856.902 2179.7 862.967C2289.65 1129.07 2401 1409.25 2448.81 1652.7C2506.94 1948.7 2460.52 2138.74 2306.88 2233.67C2278.56 2251.18 2246.92 2259.85 2215.36 2259.85ZM1854.2 1887.94C1953.9 1998.88 2058.18 2110.61 2145.48 2176.75C2183.89 2205.86 2235.02 2208.4 2275.72 2183.24C2580.54 1994.89 2311.06 1336.18 2128.78 894.959L2070.59 861.573C2063.8 857.677 2058.82 851.246 2056.75 843.692L2041.27 787.137C2037.24 772.423 2027.07 760.264 2013.35 753.785C1915 707.308 1814.61 674.486 1714.97 656.229C1702.35 653.912 1689.35 656.344 1678.36 663.053L1602.89 709.181C1574.21 726.703 1541.29 735.966 1507.69 735.966H965.299C931.695 735.966 898.776 726.703 870.104 709.181L794.625 663.051C783.644 656.344 770.655 653.923 758.028 656.23C658.394 674.484 558.004 707.307 459.634 753.786C445.928 760.263 435.752 772.421 431.724 787.138L416.236 843.696C414.166 851.25 409.19 857.678 402.398 861.574L344.214 894.96C161.929 1336.18 -107.549 1994.89 197.271 2183.25C237.984 2208.4 289.107 2205.85 327.515 2176.75C414.829 2110.6 519.092 1998.88 618.794 1887.94C683.135 1810.42 759.326 1777.62 851.465 1787.65H1621.52C1713.68 1777.6 1789.85 1810.42 1854.2 1887.94Z" fill="#0F227A"/>
<path d="M1406.72 1013.71H1066.27C1017.74 1013.71 970.867 993.408 937.664 958.01L828.035 841.14C786.067 796.401 723.055 777.971 663.611 793.061L394.124 861.403C380.018 864.965 365.686 856.447 362.112 842.34C358.533 828.236 367.068 813.902 381.175 810.323L650.662 741.981C728.684 722.189 811.385 746.371 866.463 805.089L976.092 921.959C999.378 946.778 1032.24 961.012 1066.27 961.012H1406.72C1440.75 961.012 1473.62 946.779 1496.9 921.959L1606.53 805.089C1661.6 746.375 1744.29 722.186 1822.34 741.981L2091.82 810.323C2105.93 813.902 2114.46 828.236 2110.88 842.34C2107.31 856.444 2092.96 864.962 2078.87 861.403L1809.39 793.061C1749.93 777.978 1686.93 796.403 1644.96 841.14L1535.33 958.01C1502.13 993.408 1455.25 1013.71 1406.72 1013.71Z" fill="#0F227A"/>
<path d="M847.235 842.882C844.203 842.882 841.131 842.184 838.251 840.709C828.534 835.738 824.687 823.834 829.657 814.117L894.33 687.679C899.306 677.962 911.22 674.117 920.922 679.085C930.639 684.056 934.487 695.96 929.516 705.677L864.843 832.115C861.346 838.949 854.418 842.882 847.235 842.882Z" fill="#0F227A"/>
<path d="M1625.86 842.881C1618.67 842.881 1611.75 838.95 1608.25 832.114L1543.57 705.676C1538.6 695.959 1542.45 684.055 1552.17 679.084C1561.89 674.121 1573.79 677.959 1578.76 687.678L1643.43 814.116C1648.41 823.833 1644.56 835.737 1634.84 840.708C1631.96 842.181 1628.88 842.881 1625.86 842.881Z" fill="#0F227A"/>
<path d="M923.059 1685.13C1028.55 1685.13 1114.07 1599.61 1114.07 1494.11C1114.07 1388.61 1028.55 1303.09 923.059 1303.09C817.564 1303.09 732.043 1388.61 732.043 1494.11C732.043 1599.61 817.564 1685.13 923.059 1685.13Z" fill="#D0D4D8"/>
<path d="M923.059 1687.63C816.355 1687.63 729.543 1600.81 729.543 1494.11C729.543 1387.41 816.355 1300.59 923.059 1300.59C1029.76 1300.59 1116.57 1387.41 1116.57 1494.11C1116.57 1600.81 1029.76 1687.63 923.059 1687.63ZM923.059 1305.59C819.109 1305.59 734.543 1390.16 734.543 1494.11C734.543 1598.06 819.108 1682.63 923.059 1682.63C1027.01 1682.63 1111.57 1598.06 1111.57 1494.11C1111.57 1390.16 1027.01 1305.59 923.059 1305.59Z" fill="#0F227A"/>
<g opacity="0.3">
<path d="M1077.57 1381.86C1055.44 1372.84 1031.13 1367.83 1005.71 1367.83C900.188 1367.83 814.692 1453.4 814.692 1558.85C814.692 1600.81 828.195 1639.6 851.183 1671.09C781.298 1642.77 732.029 1574.2 732.029 1494.1C732.029 1388.65 817.591 1303.09 923.045 1303.09C986.606 1303.08 1042.86 1334.11 1077.57 1381.86Z" fill="#102770"/>
<path d="M860.182 1678.11L850.006 1673.99C776.437 1644.17 728.902 1573.56 728.902 1494.1C728.902 1387.05 815.992 1299.96 923.043 1299.96C984.942 1299.96 1043.66 1329.89 1080.1 1380.02L1086.55 1388.9L1076.39 1384.76C1053.93 1375.6 1030.15 1370.96 1005.71 1370.96C902.105 1370.96 817.813 1455.25 817.813 1558.85C817.813 1598.91 830.225 1637.08 853.707 1669.25L860.182 1678.11ZM923.043 1306.21C819.439 1306.21 735.152 1390.5 735.152 1494.1C735.152 1567.35 776.895 1632.83 842.388 1663.82C822.183 1632.58 811.563 1596.52 811.563 1558.85C811.563 1451.8 898.658 1364.71 1005.71 1364.71C1027.24 1364.71 1048.27 1368.19 1068.38 1375.08C1032.86 1331.77 979.313 1306.21 923.043 1306.21Z" fill="#0F227A"/>
</g>
<path d="M923.058 1703.89C807.389 1703.89 713.283 1609.78 713.283 1494.11C713.283 1378.44 807.389 1284.34 923.058 1284.34C1038.73 1284.34 1132.83 1378.44 1132.83 1494.11C1132.83 1609.78 1038.73 1703.89 923.058 1703.89ZM923.058 1321.85C828.078 1321.85 750.802 1399.13 750.802 1494.11C750.802 1589.09 828.077 1666.37 923.058 1666.37C1018.04 1666.37 1095.31 1589.09 1095.31 1494.11C1095.31 1399.13 1018.04 1321.85 923.058 1321.85Z" fill="#0F227A"/>
<path d="M1657.39 1590.37C1710.55 1537.21 1710.55 1451.02 1657.39 1397.86C1604.23 1344.7 1518.04 1344.7 1464.88 1397.86C1411.72 1451.02 1411.72 1537.21 1464.88 1590.37C1518.04 1643.53 1604.23 1643.53 1657.39 1590.37Z" fill="#5E6C7A"/>
<path d="M1561.16 1633.37C1484.38 1633.37 1421.92 1570.9 1421.92 1494.11C1421.92 1417.33 1484.38 1354.86 1561.16 1354.86C1637.95 1354.86 1700.42 1417.33 1700.42 1494.11C1700.42 1570.9 1637.95 1633.37 1561.16 1633.37ZM1561.16 1361.11C1487.83 1361.11 1428.17 1420.78 1428.17 1494.11C1428.17 1567.45 1487.83 1627.11 1561.16 1627.11C1634.5 1627.11 1694.17 1567.45 1694.17 1494.11C1694.17 1420.78 1634.5 1361.11 1561.16 1361.11Z" fill="#0F227A"/>
<path d="M1657.39 1590.37C1710.55 1537.21 1710.55 1451.02 1657.39 1397.86C1604.23 1344.7 1518.04 1344.7 1464.88 1397.86C1411.72 1451.02 1411.72 1537.21 1464.88 1590.37C1518.04 1643.53 1604.23 1643.53 1657.39 1590.37Z" fill="#D0D4D8"/>
<path d="M1561.16 1632.74C1484.73 1632.74 1422.54 1570.55 1422.54 1494.11C1422.54 1417.68 1484.73 1355.49 1561.16 1355.49C1637.6 1355.49 1699.79 1417.68 1699.79 1494.11C1699.79 1570.55 1637.61 1632.74 1561.16 1632.74ZM1561.16 1360.49C1487.48 1360.49 1427.54 1420.43 1427.54 1494.11C1427.54 1567.79 1487.48 1627.74 1561.16 1627.74C1634.85 1627.74 1694.79 1567.79 1694.79 1494.11C1694.79 1420.43 1634.85 1360.49 1561.16 1360.49Z" fill="#0F227A"/>
<path d="M1561.16 1649C1475.76 1649 1406.28 1579.52 1406.28 1494.11C1406.28 1408.71 1475.76 1339.23 1561.16 1339.23C1646.57 1339.23 1716.05 1408.71 1716.05 1494.11C1716.05 1579.52 1646.57 1649 1561.16 1649ZM1561.16 1376.75C1496.45 1376.75 1443.8 1429.4 1443.8 1494.11C1443.8 1558.83 1496.45 1611.48 1561.16 1611.48C1625.88 1611.48 1678.53 1558.83 1678.53 1494.11C1678.53 1429.4 1625.88 1376.75 1561.16 1376.75Z" fill="#0F227A"/>
<path d="M1561.17 1558.88C1596.94 1558.88 1625.94 1529.89 1625.94 1494.11C1625.94 1458.34 1596.94 1429.34 1561.17 1429.34C1525.4 1429.34 1496.4 1458.34 1496.4 1494.11C1496.4 1529.89 1525.4 1558.88 1561.17 1558.88Z" fill="#0F227A"/>
<path d="M719.905 1206.54C773.065 1153.38 773.065 1067.19 719.905 1014.03C666.745 960.869 580.555 960.869 527.394 1014.03C474.234 1067.19 474.234 1153.38 527.394 1206.54C580.555 1259.7 666.745 1259.7 719.905 1206.54Z" fill="#5E6C7A"/>
<path d="M623.675 1249.54C546.888 1249.54 484.422 1187.08 484.422 1110.29C484.422 1033.51 546.888 971.035 623.675 971.035C700.457 971.035 762.923 1033.51 762.923 1110.29C762.923 1187.08 700.458 1249.54 623.675 1249.54ZM623.675 977.29C550.34 977.29 490.672 1036.95 490.672 1110.29C490.672 1183.63 550.34 1243.29 623.675 1243.29C697.01 1243.29 756.673 1183.63 756.673 1110.29C756.673 1036.95 697.01 977.29 623.675 977.29Z" fill="#0F227A"/>
<g opacity="0.3">
<path d="M888.945 1204.81C882.202 1293.01 812.017 1365.23 724.09 1374.46C667.66 1380.31 615.577 1360.61 578.046 1325.48C565.713 1306.4 577.691 1292.56 595.969 1293.27C608.035 1295.13 620.458 1295.76 633.145 1295.13C726.841 1290.52 803.5 1214.13 808.47 1120.43C808.648 1117.15 808.736 1113.78 808.736 1110.49C808.825 1080.77 847.332 1069.41 862.682 1094.79C863.658 1096.39 864.546 1097.9 865.432 1099.4C882.999 1130.19 891.784 1166.39 888.945 1204.81Z" fill="#0F227A"/>
</g>
<path d="M719.905 1206.54C773.065 1153.38 773.065 1067.19 719.905 1014.03C666.745 960.869 580.555 960.869 527.394 1014.03C474.234 1067.19 474.234 1153.38 527.394 1206.54C580.555 1259.7 666.745 1259.7 719.905 1206.54Z" fill="#D0D4D8"/>
<path d="M623.674 1273.03C533.938 1273.03 460.93 1200.03 460.93 1110.29C460.93 1020.55 533.938 947.543 623.674 947.543C713.41 947.543 786.413 1020.55 786.413 1110.29C786.414 1200.03 713.411 1273.03 623.674 1273.03ZM623.674 1000.78C563.288 1000.78 514.162 1049.91 514.162 1110.29C514.162 1170.67 563.288 1219.8 623.674 1219.8C684.055 1219.8 733.181 1170.67 733.181 1110.29C733.181 1049.91 684.055 1000.78 623.674 1000.78Z" fill="#0F227A"/>
<path d="M623.672 1175.06C659.444 1175.06 688.442 1146.06 688.442 1110.29C688.442 1074.52 659.444 1045.52 623.672 1045.52C587.901 1045.52 558.902 1074.52 558.902 1110.29C558.902 1146.06 587.901 1175.06 623.672 1175.06Z" fill="#0F227A"/>
<path d="M1857.6 1052.21C1899.21 1052.21 1932.94 1018.47 1932.94 976.863C1932.94 935.252 1899.21 901.52 1857.6 901.52C1815.99 901.52 1782.25 935.252 1782.25 976.863C1782.25 1018.47 1815.99 1052.21 1857.6 1052.21Z" fill="#E5C62C"/>
<path d="M1055.11 1460.38V1527.85C1055.11 1536.21 1048.33 1542.98 1039.97 1542.98H976.068V1606.89C976.068 1615.25 969.29 1622.02 960.929 1622.02H893.524C885.163 1622.02 878.386 1615.25 878.386 1606.89V1542.98H814.483C806.122 1542.98 799.344 1536.21 799.344 1527.85V1460.38C799.344 1452.01 806.122 1445.24 814.483 1445.24H878.386V1381.33C878.386 1372.97 885.164 1366.2 893.524 1366.2H960.929C969.29 1366.2 976.068 1372.97 976.068 1381.33V1445.24H1039.97C1048.33 1445.24 1055.11 1452.02 1055.11 1460.38Z" fill="#0F227A"/>
<path d="M2012.42 1207.03C2054.03 1207.03 2087.76 1173.29 2087.76 1131.68C2087.76 1090.07 2054.03 1056.34 2012.42 1056.34C1970.81 1056.34 1937.08 1090.07 1937.08 1131.68C1937.08 1173.29 1970.81 1207.03 2012.42 1207.03Z" fill="#E52C5C"/>
<path d="M1702.77 1207.03C1744.39 1207.03 1778.12 1173.29 1778.12 1131.68C1778.12 1090.07 1744.39 1056.34 1702.77 1056.34C1661.16 1056.34 1627.43 1090.07 1627.43 1131.68C1627.43 1173.29 1661.16 1207.03 1702.77 1207.03Z" fill="#5E7DEF"/>
<g opacity="0.3">
<path d="M1978.08 1029.78C1978.08 1071.41 1944.29 1105.13 1902.73 1105.13C1869.86 1105.13 1841.87 1084.06 1831.59 1054.68C1842.33 1060.54 1854.58 1063.84 1867.56 1063.84C1909.19 1063.84 1942.91 1030.11 1942.91 988.484C1942.91 979.789 1941.4 971.424 1938.69 963.586C1962.14 976.297 1978.08 1001.19 1978.08 1029.78Z" fill="#0F227A"/>
<path d="M1978.08 1339.42C1978.08 1381.05 1944.29 1414.78 1902.73 1414.78C1869.86 1414.78 1841.87 1393.7 1831.59 1364.32C1842.33 1370.18 1854.58 1373.48 1867.56 1373.48C1909.19 1373.48 1942.91 1339.75 1942.91 1298.12C1942.91 1289.36 1941.4 1281 1938.69 1273.23C1962.14 1285.94 1978.08 1310.84 1978.08 1339.42Z" fill="#0F227A"/>
<path d="M2132.87 1184.64C2132.87 1226.2 2099.15 1259.92 2057.52 1259.92C2024.65 1259.92 1996.66 1238.84 1986.38 1209.53C1997.05 1215.4 2009.37 1218.69 2022.41 1218.69C2064.04 1218.69 2097.77 1184.96 2097.77 1143.34C2097.77 1134.58 2096.25 1126.21 2093.55 1118.44C2117 1131.22 2132.87 1156.05 2132.87 1184.64Z" fill="#0F227A"/>
<path d="M1823.23 1184.64C1823.23 1226.2 1789.5 1259.92 1747.88 1259.92C1715.01 1259.92 1687.01 1238.84 1676.74 1209.53C1687.41 1215.4 1699.73 1218.69 1712.77 1218.69C1754.4 1218.69 1788.12 1184.96 1788.12 1143.34C1788.12 1134.58 1786.61 1126.21 1783.91 1118.44C1807.35 1131.22 1823.23 1156.05 1823.23 1184.64Z" fill="#0F227A"/>
</g>
<path d="M1857.6 1361.85C1899.21 1361.85 1932.94 1328.12 1932.94 1286.51C1932.94 1244.9 1899.21 1211.16 1857.6 1211.16C1815.99 1211.16 1782.25 1244.9 1782.25 1286.51C1782.25 1328.12 1815.99 1361.85 1857.6 1361.85Z" fill="#55BC5C"/>
<g opacity="0.55">
<path d="M1912.09 924.895C1905.7 923.04 1899 922.113 1892.1 922.113C1850.46 922.113 1816.76 955.815 1816.76 997.454C1816.76 1017.65 1824.69 1036 1837.58 1049.4C1805.73 1040.74 1782.23 1011.57 1782.23 976.841C1782.23 935.202 1816.03 901.5 1857.57 901.5C1879.01 901.5 1898.38 910.466 1912.09 924.895Z" fill="white"/>
</g>
<g opacity="0.55">
<path d="M2066.9 1079.7C2060.5 1077.84 2053.81 1076.91 2046.9 1076.91C2005.26 1076.91 1971.56 1110.72 1971.56 1152.25C1971.56 1172.46 1979.5 1190.8 1992.38 1204.2C1960.53 1195.54 1937.03 1166.37 1937.03 1131.64C1937.03 1090.11 1970.84 1056.3 2012.38 1056.3C2033.81 1056.3 2053.19 1065.27 2066.9 1079.7Z" fill="white"/>
</g>
<g opacity="0.55">
<path d="M1757.29 1079.7C1750.9 1077.84 1744.2 1076.91 1737.29 1076.91C1695.65 1076.91 1661.95 1110.72 1661.95 1152.25C1661.95 1172.46 1669.89 1190.8 1682.77 1204.2C1650.82 1195.54 1627.42 1166.37 1627.42 1131.64C1627.42 1090.11 1661.13 1056.3 1702.76 1056.3C1724.2 1056.3 1743.58 1065.27 1757.29 1079.7Z" fill="white"/>
</g>
<g opacity="0.55">
<path d="M1912.09 1234.61C1905.7 1232.75 1899 1231.82 1892.1 1231.82C1850.46 1231.82 1816.76 1265.53 1816.76 1307.17C1816.76 1327.37 1824.69 1345.61 1837.58 1359.11C1805.73 1350.45 1782.23 1321.18 1782.23 1286.55C1782.23 1244.91 1816.03 1211.21 1857.57 1211.21C1879.01 1211.21 1898.38 1220.18 1912.09 1234.61Z" fill="white"/>
</g>
<path d="M1857.6 1384.03C1803.82 1384.03 1760.07 1340.28 1760.07 1286.51C1760.07 1232.73 1803.82 1188.98 1857.6 1188.98C1911.37 1188.98 1955.12 1232.73 1955.12 1286.51C1955.12 1340.28 1911.38 1384.03 1857.6 1384.03ZM1857.6 1233.35C1828.28 1233.35 1804.44 1257.19 1804.44 1286.51C1804.44 1315.82 1828.28 1339.67 1857.6 1339.67C1886.91 1339.67 1910.76 1315.82 1910.76 1286.51C1910.76 1257.19 1886.91 1233.35 1857.6 1233.35Z" fill="#0F227A"/>
<path d="M1857.6 1074.39C1803.82 1074.39 1760.07 1030.64 1760.07 976.859C1760.07 923.082 1803.82 879.332 1857.6 879.332C1911.37 879.332 1955.12 923.082 1955.12 976.859C1955.13 1030.64 1911.38 1074.39 1857.6 1074.39ZM1857.6 923.697C1828.28 923.697 1804.44 947.545 1804.44 976.858C1804.44 1006.17 1828.28 1030.02 1857.6 1030.02C1886.91 1030.02 1910.76 1006.17 1910.76 976.858C1910.76 947.545 1886.91 923.697 1857.6 923.697Z" fill="#0F227A"/>
<path d="M2012.42 1229.21C1958.65 1229.21 1914.9 1185.46 1914.9 1131.68C1914.9 1077.91 1958.65 1034.16 2012.42 1034.16C2066.19 1034.16 2109.94 1077.91 2109.94 1131.68C2109.94 1185.46 2066.19 1229.21 2012.42 1229.21ZM2012.42 1078.53C1983.11 1078.53 1959.26 1102.37 1959.26 1131.68C1959.26 1161 1983.11 1184.85 2012.42 1184.85C2041.73 1184.85 2065.58 1161 2065.58 1131.68C2065.58 1102.37 2041.73 1078.53 2012.42 1078.53Z" fill="#0F227A"/>
<path d="M1702.78 1229.21C1649 1229.21 1605.25 1185.46 1605.25 1131.68C1605.25 1077.91 1649 1034.16 1702.78 1034.16C1756.55 1034.16 1800.3 1077.91 1800.3 1131.68C1800.3 1185.46 1756.55 1229.21 1702.78 1229.21ZM1702.78 1078.53C1673.46 1078.53 1649.61 1102.37 1649.61 1131.68C1649.61 1161 1673.46 1184.85 1702.78 1184.85C1732.09 1184.85 1755.93 1161 1755.93 1131.68C1755.93 1102.37 1732.09 1078.53 1702.78 1078.53Z" fill="#0F227A"/>
<path d="M1168.29 1193.04C1174.6 1166.31 1158.05 1139.52 1131.32 1133.21C1104.59 1126.89 1077.8 1143.45 1071.49 1170.18C1065.18 1196.91 1081.73 1223.7 1108.46 1230.01C1135.19 1236.32 1161.98 1219.77 1168.29 1193.04Z" fill="#0F227A"/>
<path d="M1388.23 1216.59C1407.65 1197.16 1407.65 1165.67 1388.23 1146.25C1368.81 1126.83 1337.32 1126.83 1317.9 1146.25C1298.47 1165.67 1298.47 1197.16 1317.9 1216.59C1337.32 1236.01 1368.81 1236.01 1388.23 1216.59Z" fill="#0F227A"/>
<g opacity="0.3">
<path d="M1201.47 1211.13C1201.47 1238.6 1179.21 1260.93 1151.74 1260.93C1130.6 1260.93 1112.48 1247.69 1105.37 1228.98C1109.98 1230.43 1114.85 1231.16 1119.92 1231.16C1147.39 1231.16 1169.65 1208.89 1169.65 1181.43C1169.65 1175.1 1168.47 1169.11 1166.3 1163.58C1186.65 1169.77 1201.47 1188.74 1201.47 1211.13Z" fill="#0F227A"/>
<path d="M1434.64 1211.13C1434.64 1238.6 1412.38 1260.93 1384.91 1260.93C1363.77 1260.93 1345.65 1247.69 1338.54 1228.98C1343.15 1230.43 1348.02 1231.16 1353.09 1231.16C1380.56 1231.16 1402.82 1208.89 1402.82 1181.43C1402.82 1175.1 1401.64 1169.11 1399.47 1163.58C1419.82 1169.77 1434.64 1188.74 1434.64 1211.13Z" fill="#0F227A"/>
</g>
</svg>
