<svg width="451" height="465" viewBox="0 0 451 465" fill="none" xmlns="http://www.w3.org/2000/svg">
<path opacity="0.19" d="M221 436.462C331.142 436.462 420.43 347.174 420.43 237.032C420.43 126.889 331.142 37.6016 221 37.6016C110.858 37.6016 21.5703 126.889 21.5703 237.032C21.5703 347.174 110.858 436.462 221 436.462Z" fill="#97ACEF"/>
<path d="M39.5098 415.688C60.9357 415.688 78.3048 398.319 78.3048 376.893C78.3048 355.467 60.9357 338.098 39.5098 338.098C18.084 338.098 0.714844 355.467 0.714844 376.893C0.714844 398.319 18.084 415.688 39.5098 415.688Z" fill="#97ACEF"/>
<path d="M405.465 453.467C430.411 447.639 445.909 422.693 440.081 397.747C434.253 372.802 409.307 357.304 384.361 363.131C359.416 368.959 343.918 393.906 349.745 418.851C355.573 443.797 380.52 459.295 405.465 453.467Z" fill="#4A266A"/>
<path d="M410.898 442.163H378.903C376.325 442.163 374.234 440.073 374.234 437.494V379.095C374.234 376.517 376.324 374.426 378.903 374.426H409.346C412.782 374.426 415.567 377.211 415.567 380.647V437.494C415.567 440.073 413.476 442.163 410.898 442.163Z" fill="#FFB24F"/>
<path d="M409.477 432.769H380.326C379.312 432.769 378.49 431.947 378.49 430.934V380.383C378.49 379.369 379.312 378.547 380.326 378.547H409.477C410.491 378.547 411.312 379.369 411.312 380.383V430.934C411.313 431.948 410.491 432.769 409.477 432.769Z" fill="#FF2F80"/>
<path d="M397.568 437.21C397.568 438.683 396.374 439.877 394.901 439.877C393.428 439.877 392.234 438.683 392.234 437.21C392.234 435.737 393.428 434.543 394.901 434.543C396.373 434.543 397.568 435.737 397.568 437.21Z" fill="#FFE6FF"/>
<path d="M397.976 413.794H391.825L390.84 388.16H398.961L397.976 413.794Z" fill="#FFE6FF"/>
<path d="M397.939 419.85C397.939 418.172 396.579 416.812 394.901 416.812C393.223 416.812 391.863 418.172 391.863 419.85C391.863 421.528 393.223 422.888 394.901 422.888C396.578 422.887 397.939 421.527 397.939 419.85Z" fill="#FFE6FF"/>
<g opacity="0.2">
<path d="M440.416 417.224C437.347 416.213 434.201 415.425 431.059 414.832C418.563 412.475 405.728 412.735 393.093 411.293C386.627 410.555 380.055 409.313 374.453 406.002C366.415 401.252 361.163 392.499 359.586 383.296C359.331 381.808 359.175 380.31 359.092 378.809C352.486 386.824 348.518 397.094 348.518 408.291C348.518 433.908 369.284 454.674 394.901 454.674C417.461 454.675 436.251 438.566 440.416 417.224Z" fill="#6281F6"/>
</g>
<path d="M360.871 202.107C375.703 198.562 384.852 183.664 381.306 168.832C377.761 154 362.863 144.851 348.031 148.397C333.199 151.942 324.05 166.84 327.596 181.672C331.141 196.504 346.039 205.653 360.871 202.107Z" fill="#FFB24F"/>
<path d="M336.325 181.263L349.905 157.741C351.926 154.242 356.976 154.242 358.997 157.741L372.578 181.263C374.598 184.762 372.073 189.137 368.032 189.137H340.871C336.83 189.137 334.304 184.763 336.325 181.263Z" fill="#FF2F80"/>
<path d="M356.423 176.524H352.109C351.756 176.524 351.497 176.45 351.33 176.302C351.181 176.135 351.098 175.875 351.079 175.522L350.662 164.779C350.643 164.427 350.708 164.176 350.856 164.028C351.005 163.861 351.255 163.777 351.608 163.777H356.924C357.276 163.777 357.527 163.861 357.675 164.028C357.824 164.176 357.889 164.427 357.87 164.779L357.48 175.522C357.462 175.875 357.369 176.135 357.202 176.302C357.035 176.45 356.775 176.524 356.423 176.524ZM356.84 183.816H351.719C351.367 183.816 351.107 183.742 350.94 183.594C350.791 183.427 350.717 183.167 350.717 182.814V179.168C350.717 178.816 350.791 178.565 350.94 178.417C351.107 178.25 351.367 178.167 351.719 178.167H356.84C357.193 178.167 357.443 178.25 357.592 178.417C357.759 178.565 357.842 178.816 357.842 179.168V182.814C357.842 183.167 357.759 183.427 357.592 183.594C357.443 183.742 357.193 183.816 356.84 183.816Z" fill="#FFE6FF"/>
<path d="M349.569 87.7188H348.092" stroke="#701A69" stroke-width="1.0173" stroke-miterlimit="10"/>
<path d="M345.049 87.7188H303.967" stroke="#701A69" stroke-width="1.0173" stroke-miterlimit="10" stroke-dasharray="3.04 3.04"/>
<path d="M302.445 87.7188H300.969V89.1947" stroke="#701A69" stroke-width="1.0173" stroke-miterlimit="10"/>
<path d="M300.969 92.2344V163.655" stroke="#701A69" stroke-width="1.0173" stroke-miterlimit="10" stroke-dasharray="3.04 3.04"/>
<path d="M300.969 165.176V166.652" stroke="#701A69" stroke-width="1.0173" stroke-miterlimit="10"/>
<path d="M399.198 308.769H318.87C316.186 308.769 314.01 306.593 314.01 303.909V233.411C314.01 230.727 316.186 228.551 318.87 228.551H399.198C401.882 228.551 404.058 230.727 404.058 233.411V303.909C404.057 306.593 401.882 308.769 399.198 308.769Z" fill="#543BDB"/>
<path d="M399.198 228.551H318.87C316.186 228.551 314.01 230.727 314.01 233.411V241.278H404.057V233.411C404.057 230.727 401.882 228.551 399.198 228.551Z" fill="#FFB24F"/>
<path d="M348.082 301.05H324.993C323.82 301.05 322.869 300.099 322.869 298.925V250.511C322.869 249.338 323.82 248.387 324.993 248.387H348.082C349.255 248.387 350.206 249.338 350.206 250.511V298.925C350.206 300.099 349.255 301.05 348.082 301.05Z" fill="#FF2F80"/>
<path d="M391.728 254.676H358.979C357.806 254.676 356.855 253.725 356.855 252.552V250.515C356.855 249.342 357.806 248.391 358.979 248.391H391.728C392.901 248.391 393.852 249.342 393.852 250.515V252.552C393.852 253.725 392.901 254.676 391.728 254.676Z" fill="#6281F6"/>
<path d="M391.728 267.328H358.979C357.806 267.328 356.855 266.377 356.855 265.204V263.167C356.855 261.994 357.806 261.043 358.979 261.043H391.728C392.901 261.043 393.852 261.994 393.852 263.167V265.204C393.852 266.377 392.901 267.328 391.728 267.328Z" fill="#6281F6"/>
<path d="M391.728 279.984H358.979C357.806 279.984 356.855 279.033 356.855 277.86V275.823C356.855 274.65 357.806 273.699 358.979 273.699H391.728C392.901 273.699 393.852 274.65 393.852 275.823V277.86C393.852 279.033 392.901 279.984 391.728 279.984Z" fill="#6281F6"/>
<path d="M364.042 301.439C368 301.439 371.209 298.231 371.209 294.272C371.209 290.314 368 287.105 364.042 287.105C360.084 287.105 356.875 290.314 356.875 294.272C356.875 298.231 360.084 301.439 364.042 301.439Z" fill="#FFB24F"/>
<path d="M387.435 301.439C391.393 301.439 394.602 298.231 394.602 294.272C394.602 290.314 391.393 287.105 387.435 287.105C383.476 287.105 380.268 290.314 380.268 294.272C380.268 298.231 383.476 301.439 387.435 301.439Z" fill="#FFB24F"/>
<path d="M405.986 247.771C413.657 245.948 418.398 238.252 416.575 230.581C414.752 222.91 407.056 218.169 399.385 219.992C391.714 221.815 386.974 229.511 388.797 237.182C390.62 244.853 398.316 249.593 405.986 247.771Z" fill="#FF2F80"/>
<path d="M404.918 234.151H401.261C400.962 234.151 400.742 234.088 400.6 233.962C400.475 233.821 400.404 233.601 400.388 233.302L400.034 224.196C400.018 223.897 400.074 223.685 400.199 223.559C400.325 223.417 400.537 223.347 400.836 223.347H405.342C405.641 223.347 405.853 223.417 405.979 223.559C406.105 223.685 406.16 223.897 406.144 224.196L405.814 233.302C405.798 233.601 405.72 233.821 405.578 233.962C405.437 234.088 405.216 234.151 404.918 234.151ZM405.271 240.332H400.931C400.632 240.332 400.412 240.269 400.27 240.143C400.144 240.002 400.081 239.782 400.081 239.483V236.392C400.081 236.094 400.144 235.881 400.27 235.755C400.412 235.614 400.632 235.543 400.931 235.543H405.271C405.57 235.543 405.783 235.614 405.908 235.755C406.05 235.881 406.121 236.094 406.121 236.392V239.483C406.121 239.782 406.05 240.002 405.908 240.143C405.783 240.269 405.57 240.332 405.271 240.332Z" fill="#FFE6FF"/>
<path d="M300.969 359.809V417.379H340.249" stroke="#701A69" stroke-width="1.0173" stroke-miterlimit="10" stroke-dasharray="2.95 2.95"/>
<path d="M50.4902 99.3711V127.149H131.752V166.65" stroke="#701A69" stroke-width="1.0173" stroke-miterlimit="10" stroke-dasharray="2.95 2.95"/>
<path d="M193.895 107.676V139.34H237.63V166.651" stroke="#701A69" stroke-width="1.0173" stroke-miterlimit="10" stroke-dasharray="2.95 2.95"/>
<path d="M133.95 310.033C142.366 289.118 132.234 265.341 111.319 256.925C90.4044 248.509 66.6271 258.641 58.2111 279.556C49.7952 300.471 59.9275 324.248 80.8423 332.664C101.757 341.08 125.534 330.948 133.95 310.033Z" fill="#543BDB"/>
<path d="M117.27 313.349H74.8986C71.8796 313.349 69.4316 310.901 69.4316 307.882V281.729C69.4316 278.71 71.8796 276.262 74.8986 276.262H117.27C120.289 276.262 122.737 278.71 122.737 281.729V307.882C122.736 310.901 120.289 313.349 117.27 313.349Z" fill="#FFB24F"/>
<path d="M96.0832 298.141L121.383 278.138C121.101 277.815 120.783 277.527 120.433 277.277L96.0832 296.53L71.7332 277.277C71.3832 277.526 71.0652 277.815 70.7832 278.138L96.0832 298.141Z" fill="#543BDB"/>
<path d="M83.4581 258.726C83.4581 253.052 78.8591 248.453 73.1851 248.453C67.5111 248.453 62.9121 253.052 62.9121 258.726C62.9121 264.399 67.5111 268.999 73.1851 268.999C78.8581 268.998 83.4581 264.399 83.4581 258.726Z" fill="#FF2E82"/>
<path d="M70.044 260.282H74.038C74.2926 260.282 74.457 260.234 74.5313 260.138C74.6055 260.043 74.6426 259.932 74.6426 259.804V259.375C74.6426 259.247 74.6055 259.141 74.5313 259.056C74.457 258.961 74.2926 258.913 74.038 258.913H71.3329C71.1313 258.913 70.9828 258.871 70.8873 258.786C70.8025 258.69 70.76 258.542 70.76 258.34V256.638C70.76 256.436 70.8025 256.293 70.8873 256.208C70.9828 256.113 71.1313 256.065 71.3329 256.065H73.0037C73.2583 256.065 73.4227 256.017 73.497 255.922C73.5712 255.826 73.6083 255.715 73.6083 255.587V255.349C73.6083 255.221 73.5712 255.11 73.497 255.015C73.4227 254.919 73.2583 254.871 73.0037 254.871H70.044C69.8424 254.871 69.6939 254.829 69.5984 254.744C69.5135 254.649 69.4711 254.5 69.4711 254.299V252.405C69.4711 252.203 69.5135 252.06 69.5984 251.975C69.6939 251.88 69.8424 251.832 70.044 251.832H74.4835C75.364 251.832 76.0164 252.039 76.4407 252.453C76.8757 252.856 77.0932 253.407 77.0932 254.108V255.031C77.0932 255.434 77.0242 255.784 76.8863 256.081C76.7484 256.378 76.5044 256.601 76.1543 256.749C76.9075 256.834 77.4273 257.067 77.7137 257.449C78.0108 257.821 78.1593 258.356 78.1593 259.056V260.648C78.1593 261.464 77.8994 262.112 77.3796 262.589C76.8598 263.056 76.0907 263.289 75.0723 263.289H70.044C69.8424 263.289 69.6939 263.247 69.5984 263.162C69.5135 263.066 69.4711 262.918 69.4711 262.716V260.854C69.4711 260.653 69.5135 260.51 69.5984 260.425C69.6939 260.329 69.8424 260.282 70.044 260.282Z" fill="#FFE6FF"/>
<path d="M32.6832 376.583H29.9602V360.954C29.9602 358.809 31.6992 357.071 33.8432 357.071H45.1742C47.3192 357.071 49.0582 358.81 49.0582 360.954V365.929C49.0582 366.686 49.6712 367.299 50.4282 367.299H50.9072C51.6642 367.299 52.2772 366.686 52.2772 365.929V360.954C52.2772 357.032 49.0982 353.852 45.1752 353.852H33.8442C29.9222 353.852 26.7422 357.032 26.7422 360.954V379.801H32.6832V376.583Z" fill="#543BDB"/>
<path d="M49.5637 399.933H29.4567C26.3127 399.933 23.7637 397.384 23.7637 394.24V376.119C23.7637 372.975 26.3127 370.426 29.4567 370.426H49.5637C52.7077 370.426 55.2567 372.975 55.2567 376.119V394.24C55.2567 397.384 52.7077 399.933 49.5637 399.933Z" fill="#543BDB"/>
<path d="M41.2137 385.622C42.1417 385.049 42.7647 384.031 42.7647 382.86C42.7647 381.062 41.3077 379.605 39.5097 379.605C37.7117 379.605 36.2547 381.063 36.2547 382.86C36.2547 384.031 36.8787 385.049 37.8057 385.622L36.0957 393.64H38.6867H40.3317H42.9237L41.2137 385.622Z" fill="#FFB24F"/>
<path d="M49.5637 370.426H29.4567C26.3127 370.426 23.7637 372.975 23.7637 376.119V376.258H55.2567V376.119C55.2567 372.974 52.7077 370.426 49.5637 370.426Z" fill="#FF249F"/>
<path d="M84.8613 388.383H149.859V359.57" stroke="#701A69" stroke-width="1.0173" stroke-miterlimit="10" stroke-dasharray="2.95 2.95"/>
<path d="M229.51 406.513L258.321 406.082L247.526 346.738H229.51H222.708H204.691L193.896 406.082L222.708 406.513V406.615L226.109 406.564L229.51 406.615V406.513Z" fill="#E9BDFF"/>
<path d="M344.077 356.006H108.14C104.04 356.006 100.717 352.682 100.717 348.583V179.552C100.717 175.452 104.041 172.129 108.14 172.129H344.076C348.176 172.129 351.499 175.453 351.499 179.552V348.583C351.5 352.682 348.176 356.006 344.077 356.006Z" fill="#AA96FF"/>
<path d="M228.392 177.121C228.392 178.383 227.369 179.406 226.107 179.406C224.845 179.406 223.822 178.383 223.822 177.121C223.822 175.859 224.845 174.836 226.107 174.836C227.369 174.836 228.392 175.859 228.392 177.121Z" fill="#FFE6FF"/>
<path d="M340.25 182.531H111.967V333.115H340.25V182.531Z" fill="white"/>
<path d="M233.148 343.928C233.148 347.817 229.996 350.969 226.107 350.969C222.219 350.969 219.066 347.817 219.066 343.928C219.066 340.04 222.218 336.887 226.107 336.887C229.996 336.888 233.148 340.04 233.148 343.928Z" fill="#FFE6FF"/>
<path d="M281.814 412.921C281.469 406.126 276.038 400.723 269.37 400.723H182.846C176.178 400.723 170.748 406.127 170.402 412.921H281.814Z" fill="#AA96FF"/>
<path d="M340.25 288.227V258.872L263.909 182.531H234.555L340.25 288.227Z" fill="#FFE6FF"/>
<path d="M111.967 191.085L253.997 333.115H325.909L175.325 182.531H111.967V191.085Z" fill="#FFE6FF"/>
<path d="M198.319 333.116H227.673L111.967 217.41V246.765L198.319 333.116Z" fill="#FFE6FF"/>
<path d="M223.64 88.8963C239.83 72.7065 239.83 46.4576 223.64 30.2678C207.45 14.078 181.201 14.078 165.012 30.2678C148.822 46.4576 148.822 72.7065 165.012 88.8963C181.201 105.086 207.45 105.086 223.64 88.8963Z" fill="#4A266A"/>
<path d="M200.184 85.4871H190.91C190.099 85.4871 189.502 85.2952 189.119 84.9114C188.778 84.5703 188.607 83.9946 188.607 83.1845V79.7305H179.844C179.034 79.7305 178.437 79.5599 178.053 79.2188C177.712 78.835 177.541 78.238 177.541 77.4278V69.9442C177.541 69.134 177.712 68.5583 178.053 68.2172C178.437 67.8334 179.034 67.6415 179.844 67.6415H197.05C197.604 67.6415 198.009 67.471 198.265 67.1298C198.564 66.746 198.713 66.2983 198.713 65.7866C198.713 65.0617 198.564 64.5287 198.265 64.1875C198.009 63.8464 197.604 63.6545 197.05 63.6119L187.456 62.2687C184.471 61.8422 182.061 60.8615 180.228 59.3264C178.437 57.7913 177.541 55.2328 177.541 51.6508V44.9348C177.541 41.6087 178.522 39.0075 180.484 37.1313C182.445 35.2124 185.153 34.1037 188.607 33.8052V30.2233C188.607 29.4131 188.778 28.8375 189.119 28.4963C189.502 28.1126 190.099 27.9207 190.91 27.9207H200.184C200.994 27.9207 201.57 28.1126 201.911 28.4963C202.295 28.8375 202.487 29.4131 202.487 30.2233V33.6773H208.691C209.501 33.6773 210.077 33.8692 210.418 34.253C210.802 34.5941 210.994 35.1698 210.994 35.98V43.5915C210.994 44.4017 210.802 44.9987 210.418 45.3825C210.077 45.7236 209.501 45.8942 208.691 45.8942H193.788C193.234 45.8942 192.807 46.0861 192.509 46.4699C192.21 46.811 192.061 47.2587 192.061 47.8131C192.061 48.3674 192.21 48.8365 192.509 49.2203C192.807 49.604 193.234 49.8172 193.788 49.8599L203.318 51.1391C206.303 51.5656 208.713 52.5463 210.546 54.0814C212.38 55.6165 213.297 58.175 213.297 61.7569V68.473C213.297 71.7138 212.337 74.2936 210.418 76.2125C208.499 78.1314 205.856 79.2614 202.487 79.6025V83.1845C202.487 83.9946 202.295 84.5703 201.911 84.9114C201.57 85.2952 200.994 85.4871 200.184 85.4871Z" fill="#FFB24F"/>
<g opacity="0.2">
<path d="M234.849 68.3395C231.688 67.3555 228.408 66.6805 225.142 66.2165C217.217 65.0905 209.167 65.0465 201.246 63.8905C193.325 62.7345 185.324 60.3355 179.206 55.1735C173.355 50.2355 169.625 42.9675 168.613 35.3785C168.249 32.6465 168.233 29.8815 168.523 27.1445C158.989 34.7405 152.871 46.4415 152.871 59.5795C152.871 82.4755 171.432 101.037 194.328 101.037C214.218 101.037 230.828 87.0265 234.849 68.3395Z" fill="#543BDB"/>
</g>
<path d="M97.752 91.9033H21.406C16.465 91.9033 12.459 87.8973 12.459 82.9563V73.3103C12.459 68.3693 16.464 64.3633 21.406 64.3633H97.752C102.693 64.3633 106.699 68.3693 106.699 73.3103V82.9563C106.699 87.8983 102.694 91.9033 97.752 91.9033Z" fill="#FF1E88"/>
<path d="M41.2339 81.122C41.1362 81.293 41.0466 81.3906 40.9652 81.4151C40.892 81.4313 40.7658 81.3825 40.5867 81.2685L39.4389 80.4382C39.268 80.3161 39.1785 80.2144 39.1703 80.133C39.1622 80.0516 39.2273 79.9335 39.3657 79.7789L40.6966 78.3747L38.8406 78.0694C38.6371 78.0369 38.511 77.988 38.4621 77.9229C38.4214 77.8497 38.4336 77.7113 38.4987 77.5078L38.9383 76.1524C38.9953 75.9489 39.0645 75.8309 39.1459 75.7983C39.2273 75.7658 39.3575 75.7943 39.5366 75.8838L41.2705 76.6653L40.9896 74.8459C40.9571 74.6424 40.9693 74.5081 41.0263 74.443C41.0914 74.3779 41.2257 74.3453 41.4292 74.3453H42.8578C43.0613 74.3453 43.1875 74.3779 43.2363 74.443C43.2933 74.5081 43.3055 74.6424 43.273 74.8459L43.0288 76.6653L44.7016 75.8838C44.8807 75.7943 45.0068 75.7658 45.0801 75.7983C45.1615 75.8309 45.2348 75.9489 45.2999 76.1524L45.7517 77.5078C45.8168 77.7113 45.8249 77.8497 45.7761 77.9229C45.7354 77.988 45.6133 78.0369 45.4098 78.0694L43.5416 78.3747L44.8847 79.7789C45.0231 79.9335 45.0882 80.0516 45.0801 80.133C45.072 80.2144 44.9824 80.3161 44.8115 80.4382L43.6637 81.2685C43.4846 81.3825 43.3584 81.4313 43.2852 81.4151C43.2119 81.3906 43.1265 81.293 43.0288 81.122L42.1252 79.4004L41.2339 81.122ZM49.9981 81.122C49.9004 81.293 49.8109 81.3906 49.7295 81.4151C49.6562 81.4313 49.53 81.3825 49.3509 81.2685L48.2032 80.4382C48.0322 80.3161 47.9427 80.2144 47.9345 80.133C47.9264 80.0516 47.9915 79.9335 48.1299 79.7789L49.4608 78.3747L47.6049 78.0694C47.4014 78.0369 47.2752 77.988 47.2263 77.9229C47.1856 77.8497 47.1979 77.7113 47.263 77.5078L47.7025 76.1524C47.7595 75.9489 47.8287 75.8309 47.9101 75.7983C47.9915 75.7658 48.1218 75.7943 48.3009 75.8838L50.0347 76.6653L49.7539 74.8459C49.7213 74.6424 49.7335 74.5081 49.7905 74.443C49.8556 74.3779 49.9899 74.3453 50.1934 74.3453H51.6221C51.8256 74.3453 51.9517 74.3779 52.0006 74.443C52.0576 74.5081 52.0698 74.6424 52.0372 74.8459L51.793 76.6653L53.4658 75.8838C53.6449 75.7943 53.7711 75.7658 53.8443 75.7983C53.9257 75.8309 53.999 75.9489 54.0641 76.1524L54.5159 77.5078C54.581 77.7113 54.5892 77.8497 54.5403 77.9229C54.4996 77.988 54.3775 78.0369 54.174 78.0694L52.3058 78.3747L53.649 79.7789C53.7873 79.9335 53.8525 80.0516 53.8443 80.133C53.8362 80.2144 53.7466 80.3161 53.5757 80.4382L52.4279 81.2685C52.2489 81.3825 52.1227 81.4313 52.0494 81.4151C51.9762 81.3906 51.8907 81.293 51.793 81.122L50.8894 79.4004L49.9981 81.122ZM58.7623 81.122C58.6646 81.293 58.5751 81.3906 58.4937 81.4151C58.4204 81.4313 58.2943 81.3825 58.1152 81.2685L56.9674 80.4382C56.7965 80.3161 56.7069 80.2144 56.6988 80.133C56.6906 80.0516 56.7558 79.9335 56.8941 79.7789L58.2251 78.3747L56.3691 78.0694C56.1656 78.0369 56.0394 77.988 55.9906 77.9229C55.9499 77.8497 55.9621 77.7113 56.0272 77.5078L56.4668 76.1524C56.5238 75.9489 56.593 75.8309 56.6744 75.7983C56.7558 75.7658 56.886 75.7943 57.0651 75.8838L58.7989 76.6653L58.5181 74.8459C58.4855 74.6424 58.4978 74.5081 58.5547 74.443C58.6199 74.3779 58.7542 74.3453 58.9577 74.3453H60.3863C60.5898 74.3453 60.716 74.3779 60.7648 74.443C60.8218 74.5081 60.834 74.6424 60.8014 74.8459L60.5572 76.6653L62.23 75.8838C62.4091 75.7943 62.5353 75.7658 62.6086 75.7983C62.69 75.8309 62.7632 75.9489 62.8283 76.1524L63.2801 77.5078C63.3452 77.7113 63.3534 77.8497 63.3045 77.9229C63.2638 77.988 63.1417 78.0369 62.9382 78.0694L61.0701 78.3747L62.4132 79.7789C62.5516 79.9335 62.6167 80.0516 62.6086 80.133C62.6004 80.2144 62.5109 80.3161 62.3399 80.4382L61.1922 81.2685C61.0131 81.3825 60.8869 81.4313 60.8136 81.4151C60.7404 81.3906 60.6549 81.293 60.5572 81.122L59.6537 79.4004L58.7623 81.122ZM67.5265 81.122C67.4289 81.293 67.3393 81.3906 67.2579 81.4151C67.1847 81.4313 67.0585 81.3825 66.8794 81.2685L65.7316 80.4382C65.5607 80.3161 65.4711 80.2144 65.463 80.133C65.4549 80.0516 65.52 79.9335 65.6584 79.7789L66.9893 78.3747L65.1333 78.0694C64.9298 78.0369 64.8036 77.988 64.7548 77.9229C64.7141 77.8497 64.7263 77.7113 64.7914 77.5078L65.231 76.1524C65.288 75.9489 65.3572 75.8309 65.4386 75.7983C65.52 75.7658 65.6502 75.7943 65.8293 75.8838L67.5632 76.6653L67.2823 74.8459C67.2498 74.6424 67.262 74.5081 67.319 74.443C67.3841 74.3779 67.5184 74.3453 67.7219 74.3453H69.1505C69.354 74.3453 69.4802 74.3779 69.529 74.443C69.586 74.5081 69.5982 74.6424 69.5657 74.8459L69.3215 76.6653L70.9943 75.8838C71.1734 75.7943 71.2995 75.7658 71.3728 75.7983C71.4542 75.8309 71.5275 75.9489 71.5926 76.1524L72.0444 77.5078C72.1095 77.7113 72.1176 77.8497 72.0688 77.9229C72.0281 77.988 71.906 78.0369 71.7025 78.0694L69.8343 78.3747L71.1774 79.7789C71.3158 79.9335 71.3809 80.0516 71.3728 80.133C71.3647 80.2144 71.2751 80.3161 71.1042 80.4382L69.9564 81.2685C69.7773 81.3825 69.6511 81.4313 69.5779 81.4151C69.5046 81.3906 69.4191 81.293 69.3215 81.122L68.4179 79.4004L67.5265 81.122ZM76.2908 81.122C76.1931 81.293 76.1035 81.3906 76.0221 81.4151C75.9489 81.4313 75.8227 81.3825 75.6436 81.2685L74.4959 80.4382C74.3249 80.3161 74.2354 80.2144 74.2272 80.133C74.2191 80.0516 74.2842 79.9335 74.4226 79.7789L75.7535 78.3747L73.8976 78.0694C73.6941 78.0369 73.5679 77.988 73.519 77.9229C73.4783 77.8497 73.4905 77.7113 73.5557 77.5078L73.9952 76.1524C74.0522 75.9489 74.1214 75.8309 74.2028 75.7983C74.2842 75.7658 74.4145 75.7943 74.5935 75.8838L76.3274 76.6653L76.0466 74.8459C76.014 74.6424 76.0262 74.5081 76.0832 74.443C76.1483 74.3779 76.2826 74.3453 76.4861 74.3453H77.9147C78.1182 74.3453 78.2444 74.3779 78.2933 74.443C78.3502 74.5081 78.3625 74.6424 78.3299 74.8459L78.0857 76.6653L79.7585 75.8838C79.9376 75.7943 80.0638 75.7658 80.137 75.7983C80.2184 75.8309 80.2917 75.9489 80.3568 76.1524L80.8086 77.5078C80.8737 77.7113 80.8818 77.8497 80.833 77.9229C80.7923 77.988 80.6702 78.0369 80.4667 78.0694L78.5985 78.3747L79.9417 79.7789C80.08 79.9335 80.1452 80.0516 80.137 80.133C80.1289 80.2144 80.0393 80.3161 79.8684 80.4382L78.7206 81.2685C78.5415 81.3825 78.4154 81.4313 78.3421 81.4151C78.2688 81.3906 78.1834 81.293 78.0857 81.122L77.1821 79.4004L76.2908 81.122ZM85.055 81.122C84.9573 81.293 84.8678 81.3906 84.7864 81.4151C84.7131 81.4313 84.5869 81.3825 84.4079 81.2685L83.2601 80.4382C83.0891 80.3161 82.9996 80.2144 82.9915 80.133C82.9833 80.0516 83.0484 79.9335 83.1868 79.7789L84.5177 78.3747L82.6618 78.0694C82.4583 78.0369 82.3321 77.988 82.2833 77.9229C82.2426 77.8497 82.2548 77.7113 82.3199 77.5078L82.7595 76.1524C82.8164 75.9489 82.8856 75.8309 82.967 75.7983C83.0484 75.7658 83.1787 75.7943 83.3578 75.8838L85.0916 76.6653L84.8108 74.8459C84.7782 74.6424 84.7904 74.5081 84.8474 74.443C84.9125 74.3779 85.0469 74.3453 85.2504 74.3453H86.679C86.8825 74.3453 87.0087 74.3779 87.0575 74.443C87.1145 74.5081 87.1267 74.6424 87.0941 74.8459L86.8499 76.6653L88.5227 75.8838C88.7018 75.7943 88.828 75.7658 88.9012 75.7983C88.9826 75.8309 89.0559 75.9489 89.121 76.1524L89.5728 77.5078C89.6379 77.7113 89.6461 77.8497 89.5972 77.9229C89.5565 77.988 89.4344 78.0369 89.2309 78.0694L87.3627 78.3747L88.7059 79.7789C88.8443 79.9335 88.9094 80.0516 88.9012 80.133C88.8931 80.2144 88.8036 80.3161 88.6326 80.4382L87.4849 81.2685C87.3058 81.3825 87.1796 81.4313 87.1063 81.4151C87.0331 81.3906 86.9476 81.293 86.8499 81.122L85.9464 79.4004L85.055 81.122Z" fill="#FFE6FF"/>
<path d="M19.3887 78.0653V81.5043C19.3887 84.8083 22.0667 87.4873 25.3717 87.4873C28.6757 87.4873 31.3547 84.8093 31.3547 81.5053V78.0663C31.3547 76.5263 30.1057 75.2773 28.5657 75.2773H22.1797C20.6377 75.2763 19.3887 76.5253 19.3887 78.0653Z" fill="#FFE6FF"/>
<path d="M26.9367 79.8131C26.9367 78.9481 26.2357 78.2461 25.3697 78.2461C24.5047 78.2461 23.8027 78.9471 23.8027 79.8131C23.8027 80.3241 24.0507 80.7731 24.4287 81.0591L23.8757 84.9131H26.8627L26.3097 81.0591C26.6887 80.7731 26.9367 80.3241 26.9367 79.8131Z" fill="#FF1E88"/>
<path d="M23.0202 75.4268V73.4458C23.0202 71.9208 24.0982 70.5488 25.6082 70.3308C27.1022 70.1158 28.4182 70.9978 28.8922 72.2858C29.0252 72.6478 29.3532 72.8998 29.7382 72.8998C30.3442 72.8998 30.7952 72.3038 30.5932 71.7318C29.8992 69.7688 27.9672 68.3858 25.7382 68.5298C23.1742 68.6948 21.2422 70.9528 21.2422 73.5218V75.4248H23.0202V75.4268Z" fill="#FFB24F"/>
<g opacity="0.29">
<path d="M102.988 82.1642C84.533 78.6952 65.527 82.1382 46.764 81.3952C37.398 81.0242 27.039 79.0142 21.501 71.4512C20.058 69.4812 19.092 67.2052 18.582 64.8242C15.026 66.0072 12.459 69.3552 12.459 73.3092V82.9552C12.459 87.8962 16.465 91.9022 21.406 91.9022H97.752C102.678 91.9022 106.672 87.9212 106.697 83.0012C105.467 82.6772 104.226 82.3962 102.988 82.1642Z" fill="#E51875"/>
</g>
<path d="M393.326 126.555C413.899 126.555 430.576 109.877 430.576 89.3047C430.576 68.7321 413.899 52.0547 393.326 52.0547C372.754 52.0547 356.076 68.7321 356.076 89.3047C356.076 109.877 372.754 126.555 393.326 126.555Z" fill="#FF1E88"/>
<path d="M419.172 83.2973C418.071 72.2723 408.468 65.0273 397.387 65.0273H394.053H392.599H389.265C378.184 65.0273 368.582 72.2723 367.481 83.2973C366.502 93.0963 369.357 99.0213 377.66 101.784C377.61 102.111 377.575 102.443 377.575 102.784C377.575 107.451 381.394 111.27 386.061 111.27H393.048H393.606H400.593C405.26 111.27 409.079 107.451 409.079 102.784C409.079 102.443 409.045 102.111 408.994 101.784C417.296 99.0213 420.151 93.0963 419.172 83.2973Z" fill="#FFE6FF"/>
<path d="M387.716 90.0435C387.716 86.1425 384.869 82.9805 381.357 82.9805C377.845 82.9805 374.998 86.1425 374.998 90.0435C374.998 93.9445 377.845 97.1065 381.357 97.1065C384.869 97.1065 387.716 93.9445 387.716 90.0435Z" fill="#FF1E88"/>
<path d="M405.295 82.9805C401.783 82.9805 398.936 86.1425 398.936 90.0435C398.936 93.9445 401.783 97.1065 405.295 97.1065C408.807 97.1065 411.654 93.9445 411.654 90.0435C411.654 86.1435 408.807 82.9805 405.295 82.9805Z" fill="#FF1E88"/>
<path d="M393.326 89.5742L389.951 95.4192H396.701L393.326 89.5742Z" fill="#FF1E88"/>
<path d="M401.419 102.452H399.037V101.36C399.037 101.049 398.785 100.797 398.473 100.797H398.371C398.06 100.797 397.808 101.049 397.808 101.36V102.452H395.64V101.36C395.64 101.049 395.388 100.797 395.077 100.797H394.975C394.664 100.797 394.411 101.049 394.411 101.36V102.452H392.243V101.36C392.243 101.049 391.991 100.797 391.68 100.797H391.578C391.267 100.797 391.015 101.049 391.015 101.36V102.452H388.847V101.36C388.847 101.049 388.595 100.797 388.284 100.797H388.182C387.871 100.797 387.619 101.049 387.619 101.36V102.452H385.237C384.926 102.452 384.674 102.704 384.674 103.015C384.674 103.326 384.926 103.578 385.237 103.578H387.619V105.154C387.619 105.465 387.871 105.717 388.182 105.717H388.284C388.595 105.717 388.847 105.465 388.847 105.154V103.578H391.015V105.154C391.015 105.465 391.267 105.717 391.578 105.717H391.68C391.991 105.717 392.243 105.465 392.243 105.154V103.578H394.411V105.154C394.411 105.465 394.663 105.717 394.975 105.717H395.077C395.388 105.717 395.64 105.465 395.64 105.154V103.578H397.808V105.154C397.808 105.465 398.06 105.717 398.371 105.717H398.473C398.784 105.717 399.037 105.465 399.037 105.154V103.578H401.419C401.73 103.578 401.982 103.326 401.982 103.015C401.982 102.704 401.73 102.452 401.419 102.452Z" fill="#FF1E88"/>
<g opacity="0.29">
<path d="M393.326 126.553C410.213 126.553 424.468 115.311 429.036 99.906C427.405 99.306 425.748 98.771 424.09 98.279C417.637 96.366 411.052 94.898 404.398 93.888C396.425 92.678 388.063 92.03 381.134 87.905C374.943 84.22 370.429 77.831 369.023 70.765C368.392 67.592 368.397 64.306 368.978 61.125C361.08 67.955 356.076 78.041 356.076 89.303C356.076 109.876 372.754 126.553 393.326 126.553Z" fill="#E51875"/>
</g>
<g opacity="0.19">
<path d="M77.4718 384.906C68.2128 383.684 58.6798 384.333 49.3098 383.709C37.6418 382.932 25.1298 379.518 18.1908 370.106C13.6908 364.002 12.3318 356.556 12.6658 348.898C5.3058 355.959 0.716797 365.885 0.716797 376.89C0.716797 398.316 18.0858 415.685 39.5118 415.685C58.1878 415.685 73.7778 402.485 77.4718 384.906Z" fill="#97ACEF"/>
</g>
<path d="M114.062 255.743C110.567 256.313 107.072 256.877 103.578 257.455C101.36 257.821 98.6337 259.152 96.4097 259.038C91.9427 258.809 86.1687 253.118 82.9597 250.298C75.2647 243.537 67.5517 233.948 68.3117 223.077C68.4847 220.595 69.3567 218.201 70.5417 216.014C73.3427 210.846 78.1557 206.611 83.8917 205.325C89.6277 204.039 96.1877 206.091 99.5437 210.916C101.053 213.085 101.868 215.65 102.602 218.188C104.32 224.119 105.718 230.143 106.789 236.224" fill="#E27F97"/>
<path d="M131.974 217.001L59.9341 234.892C56.4531 235.757 52.9301 233.635 52.0661 230.154L42.1401 190.187C41.2761 186.706 43.3971 183.183 46.8781 182.318L118.918 164.428C122.399 163.563 125.922 165.684 126.786 169.165L136.711 209.133C137.576 212.614 135.455 216.137 131.974 217.001Z" fill="#543BDB"/>
<path d="M70.772 196.201L57.464 199.506C56.238 199.81 54.997 199.063 54.692 197.837L53.267 192.098C52.963 190.872 53.71 189.631 54.936 189.326L68.244 186.021C69.47 185.717 70.711 186.464 71.016 187.69L72.441 193.429C72.746 194.655 71.998 195.896 70.772 196.201Z" fill="#FFCB30"/>
<path d="M119.916 177.713C120.551 180.271 118.992 182.86 116.434 183.495C113.876 184.13 111.287 182.572 110.652 180.014C110.017 177.456 111.575 174.867 114.133 174.232C116.692 173.596 119.281 175.155 119.916 177.713Z" fill="#FF1E88"/>
<path d="M125.378 196.185L59.9349 212.437C59.0939 212.646 58.2429 212.134 58.0349 211.293C57.8259 210.452 58.3389 209.601 59.1789 209.392L124.622 193.14C125.463 192.931 126.314 193.444 126.522 194.284C126.731 195.125 126.218 195.976 125.378 196.185Z" fill="white"/>
<path d="M99.9311 210.87L61.5421 220.404C60.8941 220.565 60.2371 220.17 60.0761 219.521L59.9031 218.824C59.7421 218.176 60.1371 217.519 60.7861 217.358L99.1751 207.825C99.8231 207.664 100.48 208.059 100.641 208.708L100.814 209.405C100.975 210.053 100.58 210.709 99.9311 210.87Z" fill="white"/>
<path d="M129.43 211.907L116.159 215.203C115.396 215.393 114.623 214.927 114.433 214.164L114.363 213.884C114.173 213.12 114.639 212.348 115.402 212.158L128.673 208.862C129.436 208.673 130.209 209.138 130.399 209.901L130.469 210.181C130.659 210.945 130.193 211.717 129.43 211.907Z" fill="white"/>
<g opacity="0.14">
<path d="M134.603 200.638C124.725 199.791 114.76 200.882 104.988 202.604C95.648 204.25 86.145 206.46 76.781 204.954C68.89 203.685 61.358 199.622 56.488 193.285C53.797 189.783 51.994 185.578 51.296 181.223L46.88 182.32C43.399 183.185 41.278 186.707 42.142 190.188L52.068 230.155C52.932 233.636 56.455 235.757 59.936 234.893L131.975 217.001C135.456 216.136 137.577 212.614 136.713 209.133L134.603 200.638Z" fill="#1754BC"/>
</g>
<path d="M309.946 180.355C312.638 159.842 314.286 132.432 297.55 117.041C287.102 107.432 274.78 103.552 260.695 102.664C252.986 102.178 245.712 101.304 237.92 102.398C230.374 103.457 222.9 105.958 216.844 110.582C209.657 110.151 202.911 112.936 197.406 117.41C189.32 123.982 185.127 134.184 184.401 144.46C183.779 153.258 185.632 162.124 188.977 170.285" fill="#543BDB"/>
<g opacity="0.38">
<path d="M217.227 118.039C206.567 118.79 196.714 126.434 193.338 136.573C192.61 138.76 192.163 141.03 191.818 143.309C190.747 150.387 190.793 158.123 194.76 164.083C194.942 164.356 195.156 164.643 195.473 164.73C195.792 164.818 196.124 164.679 196.425 164.543C206.335 160.067 216.307 155.556 225.256 149.377C227.94 147.524 230.585 145.458 232.275 142.669C233.538 140.584 234.205 138.196 234.731 135.816C235.416 132.719 235.89 129.574 236.148 126.413C236.345 124.002 236.352 121.364 234.891 119.437" fill="#543BDB"/>
</g>
<path d="M194.673 159.724C189.749 158.707 184.772 162.416 182.883 167.075C180.993 171.734 181.548 177.019 182.698 181.914C183.767 186.463 184.685 190.589 188.097 194.138C190.762 196.91 194.584 198.715 198.415 198.38" fill="#E868AE"/>
<path d="M195.291 193.658C195.498 193.707 196.137 192.111 196.419 189.362C196.699 186.632 196.502 182.719 195.077 178.711C193.701 174.695 191.286 171.467 189.011 169.805C186.745 168.093 184.938 167.857 184.899 168.041C184.795 168.301 186.359 168.93 188.231 170.725C190.125 172.48 192.171 175.508 193.468 179.279C194.804 183.038 195.179 186.682 195.214 189.313C195.247 191.95 195.039 193.607 195.291 193.658Z" fill="#C44A8E"/>
<path d="M191.065 189.59C191.193 189.373 190.449 188.776 189.908 187.449C189.364 186.135 188.954 184.088 189.147 181.873C189.329 179.648 190.057 177.717 190.731 176.389C191.403 175.054 191.982 174.272 191.801 174.09C191.658 173.934 190.739 174.435 189.715 175.74C188.697 177.026 187.654 179.177 187.447 181.733C187.23 184.288 187.897 186.605 188.85 188.029C189.327 188.744 189.879 189.21 190.301 189.438C190.728 189.667 191.008 189.686 191.065 189.59Z" fill="#C44A8E"/>
<path d="M122.638 237.373C117.944 234.224 114.254 229.601 112.226 224.324C110.322 219.371 109.838 213.868 107.222 209.251C105.545 206.291 102.17 205.506 100.691 208.89C99.3733 211.907 99.8983 214.955 99.9303 218.151C99.9683 221.988 99.7873 225.847 98.9083 229.595C97.7733 234.441 95.4903 239.152 95.7883 244.121C96.1313 249.848 100.281 255.156 105.755 256.872" fill="#E27F97"/>
<path d="M259.506 217.412C261.645 221.18 266.069 223.391 270.4 223.288C274.731 223.185 278.87 220.941 281.699 217.659C282.358 216.894 283.046 216.016 284.041 215.84C284.67 215.728 285.308 215.925 285.928 216.078C290.879 217.301 296.297 215.712 300.224 212.458C304.151 209.205 306.656 204.443 307.758 199.465C308.795 194.781 308.397 189.259 304.813 186.07C303.164 184.602 301.017 183.802 298.854 183.361C292.307 182.028 285.547 183.745 279.185 185.786" fill="#543BDB"/>
<path d="M315.12 170.726C312.179 163.776 305.174 159.595 298.819 161.032C298.71 153.873 297.66 146.836 295.051 140.713C287.736 123.544 268.754 115.334 251.172 113.357C233.505 111.37 215.269 116.289 204.505 131.26C194.458 145.233 193.476 163.598 193.531 180.808C193.551 187.049 193.666 193.353 195.161 199.412C196.257 203.854 198.151 208.206 201.336 211.49C204.791 215.052 209.483 217.102 214.103 218.912C218.723 220.722 223.49 222.427 227.384 225.503C233.138 230.05 232.889 239.58 231.365 246.453C242.118 249.37 253.911 248.621 264.833 245.629C263.554 237.086 263.216 227.919 268.492 221.299C273.068 215.557 280.759 213.288 286.175 208.33C289.27 205.497 291.285 202.222 292.726 198.691C297.105 200.34 302.277 199.151 306.358 197.02C311.225 194.48 314.31 191.15 315.812 185.863C317.208 180.952 317.124 175.462 315.12 170.726Z" fill="#F972B6"/>
<path d="M311.456 158.45C303.923 158.071 296.967 155.983 289.582 154.707C285.028 153.921 280.592 152.555 275.983 151.986C270.681 151.33 265.36 150.845 260.029 150.501C258.142 150.437 256.255 150.377 254.373 150.319C242.326 149.95 230.368 150.351 218.414 151.941C209.396 153.141 200.233 154.826 191.983 158.726C191.025 165.751 191.56 172.451 192.068 179.614C192.274 182.511 192.581 185.598 194.396 187.865C195.378 189.091 196.732 189.973 198.157 190.633C203.771 193.234 210.907 192.878 216.508 190.464C222.096 188.055 227.771 183.913 234.17 184.77C236.311 185.056 238.326 185.913 240.363 186.633C250.019 190.045 260.653 193.706 271.164 192.155C277.101 191.279 280.803 189.464 285.047 185.104C287.012 183.085 288.539 180.721 290.138 178.416C291.805 176.011 293.451 174.601 296.007 173.139C300.674 170.47 305.918 168.821 311.274 168.335C311.663 165.055 311.768 161.757 311.456 158.45Z" fill="#4A266A"/>
<path d="M190.796 333.289C198.525 330.358 205.062 325.433 208.637 317.846C206.626 322.859 205.013 328.029 203.786 333.289H321.765C327.932 330.825 334.1 328.36 340.267 325.896C342.351 325.063 344.638 324.039 345.505 321.968C346.267 320.148 345.686 318.074 345.094 316.192C341.63 305.179 337.979 294.226 334.142 283.337C329.021 268.804 320.162 251.199 304.917 245.348C292.833 240.71 278.662 241.297 266.499 237.603C247.076 231.705 232.797 243.345 214.74 248.167C204.335 250.946 196.99 257.463 188.865 264.01C181.883 269.636 174.202 274.881 164.793 273.039C156.305 271.378 151.001 267.316 145.063 261.115C138.672 254.44 132.727 247.34 127.262 239.888C114.303 245.607 102.217 253.135 91.5254 262.45C102.399 290.285 117.363 322.943 147.228 333.287H190.796V333.289Z" fill="#4A266A"/>
<path d="M270.359 236.396C270.087 234.753 270.191 232.853 269.358 231.351C268.474 229.759 266.372 230.16 264.888 230.379C262.594 230.717 260.299 230.988 257.96 231.128C257.214 231.172 252.614 231.328 248.365 231.382C244.116 231.328 239.516 231.172 238.77 231.128C236.431 230.989 234.136 230.718 231.842 230.379C230.358 230.16 228.256 229.759 227.373 231.351C226.539 232.853 226.644 234.753 226.371 236.396C225.461 241.894 229.588 244.9 234.434 246.064C242.269 247.946 251.24 247.633 259.2 246.616C264.882 245.89 271.506 243.325 270.359 236.396Z" fill="#FF2F80"/>
<g opacity="0.17">
<path d="M280.121 311.914C281.112 319.272 280.565 327.302 276.413 333.371H302.976C306.738 330.915 309.688 327.321 310.731 322.986C311.494 319.813 311.222 316.488 310.808 313.25C309.462 302.721 306.673 292.41 305.464 281.865C304.255 271.319 304.744 260.199 309.599 250.76L293.403 246.715C280.464 255.932 274.071 272.802 275.688 288.605C276.494 296.477 279.065 304.071 280.121 311.914Z" fill="#4A266A"/>
</g>
<path d="M206.423 325.563C206.509 325.587 206.876 324.652 207.376 322.908C207.881 321.166 208.462 318.601 208.967 315.397C209.478 312.193 209.865 308.348 210.123 304.077C210.387 299.806 210.52 295.112 210.713 290.202C210.912 285.294 211.206 280.632 211.714 276.422C212.218 272.213 212.917 268.458 213.725 265.36C215.313 259.148 217.156 255.577 216.923 255.47C216.846 255.431 216.303 256.278 215.5 257.907C214.691 259.533 213.695 261.977 212.757 265.092C211.812 268.205 210.998 272.002 210.416 276.256C209.83 280.51 209.494 285.215 209.294 290.145C209.127 294.993 208.968 299.615 208.817 304.008C208.631 308.258 208.352 312.073 207.972 315.261C207.241 321.644 206.194 325.501 206.423 325.563Z" fill="#FFB24F"/>
<path d="M209.583 291.659C209.977 291.493 207.597 285.552 206.086 277.868C204.526 270.194 204.438 263.794 204.01 263.793C203.654 263.761 203.098 270.29 204.692 278.147C206.242 286.012 209.266 291.825 209.583 291.659Z" fill="#FFB24F"/>
<path d="M347.226 306.673C341.805 291.846 335.925 277.868 328.395 263.995C325.135 257.989 319.731 252.179 313.812 248.738C308.989 245.934 299.578 242.993 294.439 246.672C287.608 251.563 284.125 259.561 283.411 267.772C282.78 275.03 284.043 282.306 285.336 289.476C286.575 296.35 288.505 303.503 289.014 310.468C289.449 316.413 291.884 323.304 289.98 329.187C287.577 336.613 279.212 340.012 271.809 342.483C260.588 346.229 249.366 349.974 238.145 353.72C238.652 367.533 241.822 381.416 248.681 393.271C266.863 391.999 284.765 387.721 302.42 383.065C321.016 378.16 336.37 371.32 348.238 355.791C359.472 341.093 352.928 322.267 347.226 306.673Z" fill="#4A266A"/>
<path d="M234.409 419.811L143.52 447.188C141.007 447.945 138.356 446.521 137.599 444.008L117.717 378.001C116.96 375.488 118.384 372.837 120.897 372.08L211.785 344.703C214.298 343.946 216.949 345.37 217.706 347.883L237.588 413.89C238.345 416.403 236.921 419.054 234.409 419.811Z" fill="#FBD7FF"/>
<path d="M211.785 344.703L120.897 372.08C118.384 372.837 116.96 375.488 117.717 378.001L121.325 389.979L221.314 359.861L217.706 347.883C216.949 345.37 214.298 343.946 211.785 344.703Z" fill="#FFB24F"/>
<path d="M135.655 376.648C134.681 373.413 131.268 371.58 128.033 372.555C124.798 373.529 122.965 376.942 123.94 380.177C124.914 383.412 128.327 385.245 131.562 384.271C134.797 383.296 136.63 379.883 135.655 376.648Z" fill="#543BDB"/>
<path d="M129.953 381.279C129.985 381.388 129.984 381.476 129.948 381.543C129.916 381.603 129.845 381.649 129.736 381.682L128.429 382.076C128.32 382.109 128.233 382.11 128.168 382.08C128.106 382.042 128.059 381.968 128.026 381.86L127.749 380.939C127.67 380.676 127.633 380.471 127.639 380.325C127.645 380.179 127.685 379.999 127.757 379.783L128.171 378.636L127.192 377.908C127.007 377.77 126.872 377.642 126.786 377.524C126.706 377.404 126.627 377.213 126.547 376.949L126.348 376.287C126.315 376.178 126.314 376.093 126.346 376.034C126.383 375.967 126.455 375.917 126.564 375.884L127.888 375.485C127.997 375.452 128.082 375.454 128.144 375.492C128.209 375.523 128.258 375.592 128.291 375.701L128.47 376.295C128.487 376.352 128.508 376.411 128.533 376.473C128.558 376.534 128.599 376.587 128.656 376.632L129.198 377.06C129.24 377.098 129.28 377.126 129.317 377.146C129.359 377.159 129.402 377.158 129.448 377.144L129.551 377.113C129.597 377.099 129.631 377.077 129.653 377.045C129.673 377.008 129.693 376.961 129.714 376.905L129.938 376.247C129.96 376.177 129.965 376.11 129.952 376.045C129.939 375.98 129.923 375.919 129.906 375.862L129.727 375.269C129.695 375.16 129.694 375.075 129.726 375.016C129.762 374.949 129.835 374.899 129.944 374.866L131.251 374.472C131.36 374.439 131.445 374.442 131.507 374.479C131.572 374.51 131.621 374.579 131.654 374.688L131.853 375.351C131.933 375.614 131.969 375.819 131.963 375.965C131.957 376.11 131.918 376.291 131.845 376.507L131.434 377.663L132.41 378.382C132.595 378.52 132.728 378.649 132.808 378.768C132.893 378.886 132.976 379.077 133.055 379.341L133.332 380.261C133.365 380.37 133.364 380.458 133.328 380.525C133.296 380.585 133.225 380.631 133.116 380.664L131.809 381.058C131.7 381.091 131.613 381.092 131.547 381.062C131.486 381.024 131.439 380.95 131.406 380.841L131.15 379.99C131.132 379.933 131.111 379.873 131.087 379.812C131.062 379.751 131.021 379.697 130.963 379.652L130.422 379.224C130.372 379.183 130.329 379.155 130.294 379.141C130.258 379.127 130.217 379.126 130.171 379.14L130.051 379.177C130.005 379.19 129.971 379.213 129.95 379.245C129.928 379.276 129.907 379.323 129.889 379.385L129.665 380.043C129.642 380.113 129.637 380.18 129.65 380.245C129.664 380.309 129.679 380.371 129.696 380.428L129.953 381.279Z" fill="#FFB24F"/>
<path d="M203.237 416.709C210.128 403.948 205.368 388.017 192.607 381.127C179.846 374.237 163.915 378.996 157.025 391.757C150.135 404.518 154.894 420.449 167.655 427.339C180.416 434.23 196.347 429.471 203.237 416.709Z" fill="#FF1E88"/>
<path d="M161.41 390.998L176.129 404.66L180.854 385.141L188.04 382.977L181.047 407.213L200.262 423.555L193.076 425.72L178.612 412.903L173.632 431.576L166.447 433.74L173.228 409.568L154.224 393.162L161.41 390.998Z" fill="white"/>
<path d="M218.837 171.701C218.837 174.49 217.61 176.75 216.097 176.75C214.584 176.75 213.357 174.489 213.357 171.701C213.357 168.912 214.584 166.652 216.097 166.652C217.61 166.651 218.837 168.912 218.837 171.701Z" fill="#FFB24F"/>
<path d="M255.339 171.701C255.339 174.49 254.112 176.75 252.599 176.75C251.086 176.75 249.859 174.489 249.859 171.701C249.859 168.912 251.086 166.652 252.599 166.652C254.112 166.651 255.339 168.912 255.339 171.701Z" fill="#FFB24F"/>
<path d="M234.774 192.126C234.758 191.986 234.135 192.04 233.144 191.781C232.173 191.523 230.82 190.746 230.028 189.145C229.199 187.565 229.263 185.347 230.166 183.051C231 180.746 232.622 178.274 233.338 175.193C234.111 172.168 234.056 169.167 233.705 166.55C233.332 163.923 232.666 161.638 231.993 159.778C230.617 156.061 229.335 153.978 229.146 154.065C228.905 154.169 229.795 156.429 230.844 160.145C231.355 162.003 231.875 164.238 232.145 166.739C232.394 169.232 232.391 172.016 231.683 174.781C231.06 177.548 229.542 179.953 228.685 182.525C228.253 183.8 227.982 185.118 228.029 186.371C228.044 187.635 228.429 188.804 228.971 189.726C229.525 190.65 230.26 191.332 230.99 191.763C231.724 192.199 232.447 192.376 233.026 192.433C234.204 192.512 234.794 192.213 234.774 192.126Z" fill="#AD576F"/>
<path d="M234.774 192.126C234.758 191.986 234.135 192.04 233.144 191.781C232.173 191.523 230.82 190.746 230.028 189.145C229.199 187.565 229.263 185.347 230.166 183.051C231 180.746 232.622 178.274 233.338 175.193C234.111 172.168 234.056 169.167 233.705 166.55C233.332 163.923 232.666 161.638 231.993 159.778C230.617 156.061 229.335 153.978 229.146 154.065C228.905 154.169 229.795 156.429 230.844 160.145C231.355 162.003 231.875 164.238 232.145 166.739C232.394 169.232 232.391 172.016 231.683 174.781C231.06 177.548 229.542 179.953 228.685 182.525C228.253 183.8 227.982 185.118 228.029 186.371C228.044 187.635 228.429 188.804 228.971 189.726C229.525 190.65 230.26 191.332 230.99 191.763C231.724 192.199 232.447 192.376 233.026 192.433C234.204 192.512 234.794 192.213 234.774 192.126Z" fill="white"/>
<path d="M239.212 188.966C239.016 188.721 238.247 189.009 237.494 189.61C236.741 190.211 236.289 190.897 236.485 191.143C236.681 191.388 237.45 191.1 238.203 190.499C238.956 189.898 239.408 189.211 239.212 188.966Z" fill="#C44A8E"/>
<path d="M244.898 193.89C244.748 193.791 244.11 194.684 242.792 195.766C241.494 196.847 239.408 198.066 236.872 198.429C234.335 198.787 231.993 198.199 230.445 197.523C228.877 196.852 228.015 196.172 227.899 196.309C227.805 196.402 228.496 197.325 230.087 198.242C231.647 199.156 234.206 199.953 237.033 199.553C239.859 199.148 242.094 197.669 243.337 196.355C244.608 195.032 245.014 193.953 244.898 193.89Z" fill="#C44A8E"/>
<path d="M267.383 146.225C268.554 148.73 265.32 152.717 260.159 155.13C254.998 157.543 249.865 157.469 248.693 154.964C247.522 152.459 250.756 148.472 255.917 146.059C261.079 143.646 266.212 143.72 267.383 146.225Z" fill="#FFB24F"/>
<path d="M222.78 156.392C221.326 158.744 216.504 158.398 212.009 155.62C207.514 152.841 205.049 148.682 206.503 146.33C207.957 143.978 212.779 144.324 217.274 147.102C221.768 149.88 224.233 154.04 222.78 156.392Z" fill="#FFB24F"/>
<path d="M315.585 175.628C315.775 173.623 315.31 171.595 314.534 169.764C312.44 164.826 308.686 160.78 303.435 160.531C295.882 160.173 289.498 165.975 287.326 172.838C285.587 178.333 285.267 184.27 286.404 189.92C288.744 190.523 291.026 190.168 293.374 190.541C296.08 190.971 298.947 191.236 301.607 190.408" fill="#F972B6"/>
<g opacity="0.18">
<path d="M299.579 195.456C296.878 191.741 295.659 187.013 296.05 182.437C296.59 176.113 300.992 167.421 307.239 164.919C307.542 164.797 307.878 164.694 308.192 164.784C308.435 164.855 308.631 165.033 308.81 165.213C313.759 170.174 313.946 180.795 311.133 186.796C308.987 191.374 304.58 194.823 299.62 195.807" fill="#E27F97"/>
</g>
<path d="M306.897 165.235C306.858 165.062 304.779 165.458 302.294 167.631C299.809 169.745 297.299 173.79 296.51 178.725C295.729 183.5 295.7 188.039 296.68 191.191C297.158 192.759 297.847 193.941 298.474 194.617C299.083 195.307 299.542 195.553 299.606 195.482C299.824 195.284 298.406 193.888 297.849 190.895C297.236 187.939 297.432 183.657 298.193 178.998C298.927 174.437 301.049 170.66 303.133 168.496C305.203 166.28 307.022 165.497 306.897 165.235Z" fill="#C44A8E"/>
<path d="M301.153 191.081C301.369 191.153 301.915 190.323 302.534 188.832C303.117 187.359 303.865 185.082 303.414 182.439C302.959 179.818 301.426 177.838 300.109 176.82C298.77 175.778 297.718 175.575 297.631 175.768C297.513 175.994 298.309 176.567 299.278 177.694C300.242 178.808 301.36 180.569 301.734 182.734C302.114 184.882 301.662 186.969 301.379 188.486C301.073 190.009 300.923 191.003 301.153 191.081Z" fill="#C44A8E"/>
<g opacity="0.18">
<path d="M264.193 121.12C259.377 121.557 255.357 120.656 250.975 118.721C247.15 117.032 243.328 116.139 239.268 115.23C233.538 113.947 222.138 109.956 217.575 115.721C214.98 119 215.729 124.292 216.443 128.067C217.43 133.292 219.767 138.337 223.845 141.858C227.02 144.601 231.257 146.081 235.45 145.914C239.642 145.747 243.747 143.933 246.694 140.946C248.269 145.638 253.135 148.698 258.058 149.206C262.981 149.714 267.903 148.052 272.254 145.693C273.766 150.342 276.096 154.851 279.751 158.098C283.407 161.344 288.542 163.166 293.3 162.039C293.785 161.924 294.28 161.771 294.654 161.441C295.169 160.986 295.367 160.27 295.439 159.586C295.6 158.062 295.261 156.535 294.925 155.04C293.246 147.581 291.568 140.121 289.889 132.662C289.237 129.765 288.532 126.755 286.659 124.451C284.158 121.375 279.985 120.124 276.023 120.015C272.06 119.903 268.141 120.761 264.193 121.12Z" fill="#E27F97"/>
</g>
<path d="M211.762 116.301C213.762 124.133 218.77 131.157 225.523 135.599C227.442 136.861 229.528 137.934 231.781 138.382C238.039 139.627 244.872 135.128 246.199 128.887C249.065 134.887 254.089 140.214 260.549 141.788C267.009 143.363 274.762 140.183 276.916 133.892C277.307 141.494 277.809 149.464 281.825 155.931C284.538 160.3 289.63 163.889 294.596 162.555C298.013 161.637 300.539 158.525 301.502 155.121C302.465 151.716 302.07 148.064 301.211 144.632C299.993 139.767 297.876 135.178 295.623 130.698C293.127 125.734 290.346 120.732 286.056 117.201C283.06 114.736 279.468 113.109 275.832 111.756C261.466 106.41 245.667 104.969 230.571 107.628C224.624 108.675 218.635 110.42 213.824 114.071C212.581 115.014 211.343 116.244 211.25 117.802" fill="#543BDB"/>
<path d="M249.452 350.27C249.488 350.368 251.251 349.803 254.462 348.86C257.664 347.888 262.351 346.656 268.045 344.711C269.474 344.224 270.934 343.644 272.467 343.106C274.003 342.557 275.616 341.992 277.266 341.32C278.911 340.641 280.605 339.864 282.228 338.796C283.863 337.724 285.304 336.306 286.57 334.704C289.111 331.468 290.572 327.253 291.005 322.88C291.232 320.688 291.237 318.445 291.062 316.193C290.874 313.935 290.597 311.712 290.316 309.431C289.168 300.344 287.567 291.739 285.85 284.012C285.037 280.154 284.416 276.468 284.288 272.998C284.22 271.264 284.295 269.593 284.444 267.99C284.636 266.393 284.87 264.862 285.23 263.43C286.604 257.662 289.085 253.436 290.961 250.717C292.894 248.009 294.222 246.702 294.127 246.612C294.092 246.577 293.739 246.879 293.095 247.489C292.457 248.104 291.568 249.067 290.516 250.388C288.473 253.048 285.795 257.288 284.254 263.186C283.853 264.651 283.58 266.223 283.353 267.867C283.169 269.516 283.064 271.248 283.109 273.034C283.19 276.611 283.783 280.382 284.566 284.275C286.214 292.023 287.761 300.561 288.905 309.61C289.183 311.864 289.465 314.123 289.651 316.3C289.825 318.484 289.826 320.644 289.618 322.74C289.22 326.926 287.868 330.87 285.529 333.906C284.36 335.413 283.025 336.755 281.531 337.757C280.028 338.772 278.406 339.547 276.81 340.232C275.208 340.913 273.619 341.499 272.087 342.077C270.578 342.658 269.117 343.222 267.704 343.766C262.104 345.815 257.447 347.198 254.291 348.334C252.707 348.886 251.49 349.354 250.671 349.685C249.855 350.023 249.435 350.223 249.452 350.27Z" fill="#FFB24F"/>
<path d="M251.468 368.43L245.284 357.529C244.789 356.738 244.295 355.948 243.8 355.157C243.688 354.979 243.566 354.79 243.373 354.706C243.186 354.625 242.971 354.66 242.77 354.696C238.452 355.471 234.134 356.245 229.817 357.019C220.82 358.633 211.807 355.383 202.786 356.751C201.779 356.904 200.588 357.308 200.385 358.306C200.152 359.452 201.396 360.307 202.466 360.779C208.577 363.474 215.192 365.022 221.865 365.319C216.255 369.553 209.295 371.969 202.267 372.119C199.259 372.183 196.056 372.527 193.437 374.165C192.919 374.489 192.403 374.912 192.254 375.505C192.071 376.23 192.515 376.995 193.13 377.42C196.175 379.521 201.216 379.858 204.769 379.478C208.249 379.106 211.798 378.019 215.227 377.307C215.048 377.634 214.746 377.874 214.448 378.099C210.19 381.306 205.158 383.245 200.095 384.777C198.074 385.389 195.025 386.187 193.698 387.998C191.847 390.523 195.889 392.37 197.924 392.518C205.582 393.077 212.374 388.688 218.964 385.476C216.732 388.811 213.798 391.673 210.409 393.822C208.175 395.238 205.691 396.394 203.981 398.412C203.615 398.844 203.276 399.349 203.262 399.916C203.244 400.656 203.808 401.314 204.481 401.622C205.154 401.93 205.92 401.954 206.66 401.941C213.87 401.815 220.464 397.036 225.351 392.173C223.85 397.775 219.08 401.839 214.954 405.58C214.511 405.982 214.044 406.403 213.846 406.968C213.561 407.782 213.933 408.726 214.591 409.283C215.249 409.84 216.136 410.059 216.998 410.087C219.876 410.18 222.754 408.471 224.858 406.692C227.331 404.602 229.884 402.65 232.641 400.944C235.45 399.205 238.405 397.701 241.464 396.453C243.968 395.431 247.084 394.987 249.353 393.492C254.449 390.136 253.111 383.917 252.556 378.873C252.172 375.393 251.812 371.912 251.468 368.43Z" fill="#E27F97"/>
<path d="M98.4 245.234C98.545 245.185 97.886 243.541 97.709 240.753C97.488 237.967 97.973 234.113 98.898 229.914C99.394 227.809 99.623 225.697 99.687 223.829C99.767 221.949 99.765 220.269 99.808 218.862C99.87 216.047 100.148 214.327 100.019 214.301C99.918 214.275 99.424 215.988 99.206 218.829C98.931 221.662 99.063 225.578 98.064 229.739C97.133 233.96 96.724 237.95 97.109 240.809C97.28 242.235 97.583 243.364 97.857 244.115C98.138 244.864 98.35 245.253 98.4 245.234Z" fill="white"/>
<path d="M98.5215 226.68C98.4515 226.589 97.6905 227.027 96.5435 227.857C95.4005 228.689 93.8635 229.922 92.3755 231.52C90.8875 233.118 89.8025 234.812 89.2305 236.13C88.6495 237.447 88.5115 238.332 88.6085 238.361C88.7355 238.403 89.0745 237.6 89.7675 236.404C90.4535 235.203 91.5605 233.647 93.0015 232.098C94.4425 230.55 95.8865 229.268 96.9235 228.324C97.9635 227.384 98.5955 226.776 98.5215 226.68Z" fill="white"/>
<path d="M247.217 351.98L258.293 393.19C259.217 396.63 257.179 400.167 253.739 401.092C247.32 402.817 240.718 399.012 238.992 392.593L230.816 362.173C229.091 355.754 232.896 349.151 239.315 347.426C242.754 346.501 246.292 348.54 247.217 351.98Z" fill="#FFB24F"/>
<g opacity="0.17">
<path d="M210.589 288.94C210.893 277.046 212.524 265.089 217.478 254.186C217.504 254.129 217.534 254.08 217.561 254.025C217.568 254 217.574 253.974 217.581 253.949C213.7 259.401 210.399 264.025 208.767 270.599C207.275 276.611 206.877 282.823 206.104 288.95C205.572 293.169 204.831 297.361 203.885 301.507C202.969 305.521 201.816 309.587 199.409 312.927C195.678 318.106 189.417 320.864 183.207 322.342C164.861 326.708 144.903 321.53 129.737 310.321C114.571 299.113 104.026 282.333 98.4892 264.306L92.4492 264.805C103.249 292.102 118.198 323.236 147.227 333.29H190.794C198.523 330.359 205.06 325.434 208.634 317.847C208.174 318.994 207.74 320.152 207.321 321.315C207.846 320.184 208.316 319.022 208.713 317.823C209.94 314.115 210.497 310.231 210.888 306.337C210.801 300.534 210.442 294.71 210.589 288.94Z" fill="#4A266A"/>
</g>
<path d="M131.413 249.648L94.5363 271.119C91.4583 272.911 87.5103 271.869 85.7183 268.791C82.3743 263.047 84.3193 255.679 90.0633 252.334L117.285 236.484C123.029 233.14 130.397 235.085 133.741 240.829C135.534 243.908 134.491 247.856 131.413 249.648Z" fill="#FFB24F"/>
</svg>
