<svg width="340" height="566" viewBox="0 0 340 566" fill="none" xmlns="http://www.w3.org/2000/svg">
<path d="M185.162 18.067C185.162 18.067 201.074 9.18874 214.481 16.5781C227.889 23.9674 238.917 33.8512 240.821 49.1531C242.726 64.4551 238.984 82.5064 237.794 83.7536C236.604 85.0008 223.883 100.645 223.883 100.645L207.388 110.013C207.388 110.013 217.356 116.561 221.617 129.636C225.879 142.712 235.022 164.863 235.022 164.863C235.022 164.863 245.584 195.518 245.979 197.174C246.375 198.83 249.382 201.526 249.382 201.526L268.566 179.961L289.833 146.956L314.677 162.643L292.425 206.913L263.877 249.011L253.866 258.405L244.793 257.071C244.793 257.071 224.348 237.444 222.239 233.746C220.13 230.048 214.326 222.243 214.326 222.243L198.918 293.328L196.93 325.317C196.93 325.317 196.421 362.029 198.154 370.019C199.888 378.009 208.485 440.383 215.787 458.86C223.09 477.337 238.412 524.624 238.412 524.624L194.833 519.19C194.833 519.19 158.639 420.076 158.049 411.376C157.459 402.675 146.213 342.772 146.213 342.772C146.213 342.772 140.322 366.851 140.178 374.677C140.034 382.502 141.681 422.376 142.144 429.444C142.606 436.511 150.282 521.779 150.282 521.779L111.051 519.157C111.051 519.157 94.9501 422.072 95.6877 416.731C96.4252 411.39 93.065 347.852 95.4588 342.115C97.8526 336.379 105.989 277.36 105.989 277.36L104.638 274.269L108.329 262.97L120.838 206.496C120.838 206.496 93.5432 215.73 87.6556 211.971C81.7681 208.213 71.388 209.467 69.5404 196.602C67.6929 183.738 51.0356 102.28 51.0356 102.28L78.8666 93.0928L101.804 164.56C101.804 164.56 143.666 130.925 146.267 128.99C148.869 127.055 156.768 120.179 156.768 120.179L171.56 111.743L177.616 107.408C177.616 107.408 161.267 102.734 160.956 97.0313C160.644 91.3283 159.048 87.9454 159.048 87.9454L185.162 18.067Z" fill="#CC0037"/>
<path d="M199.685 19.3946C199.685 19.3946 181.478 17.8017 174.977 22.2019C168.477 26.6021 156.974 40.1202 155.058 44.5394C153.143 48.9585 150.919 74.373 153.736 81.4995C156.552 88.6259 174.523 101.665 183.413 100.532C192.303 99.3982 210.349 94.097 218.291 77.5917C226.233 61.0864 224.199 40.6505 216.238 31.1629C208.277 21.6752 199.685 19.3946 199.685 19.3946Z" fill="#4D4D4D"/>
<path d="M52.8557 98.6643C52.8557 98.6643 40.8165 65.8864 42.642 60.3127C44.4674 54.739 45.9776 52.7689 47.3052 52.8851C48.6329 53.0012 50.1501 53.134 50.1501 53.134C50.1501 53.134 47.4972 48.5063 49.28 45.6045C51.0626 42.7026 53.7109 40.8321 53.7109 40.8321L57.1911 40.3721C57.1911 40.3721 56.3541 32.4633 58.1274 31.854C59.9008 31.2447 61.0222 31.5339 62.3735 33.5633C63.7248 35.5926 68.8056 64.8951 68.8056 64.8951L70.873 69.6627C70.873 69.6627 76.9138 61.7822 78.6539 61.5522C80.394 61.3222 83.0327 61.7442 83.1464 64.812C83.2603 67.8797 76.1222 92.6732 76.1222 92.6732L52.8557 98.6643Z" fill="#4D4D4D"/>
<path d="M291.508 147.255C291.508 147.255 288.016 123.825 289.865 120.164C291.714 116.504 291.93 114.038 294.106 115.375C296.282 116.712 301.052 125.539 301.052 125.539L309.343 105.051C309.343 105.051 316.476 89.0479 317.977 89.3703C319.477 89.6928 321.538 92.3575 321.322 94.823C321.106 97.2886 320.924 99.3749 320.924 99.3749C320.924 99.3749 323.416 97.1084 324.304 100.053C325.194 102.997 326.206 106.717 326.057 108.424C325.907 110.131 324.108 113.222 324.108 113.222C324.108 113.222 328.29 111.295 329.385 114.066C330.481 116.838 330.874 121.077 330.139 122.924C329.404 124.77 314.732 159.225 314.732 159.225L291.508 147.255Z" fill="#4D4D4D"/>
<path d="M218.422 193.952C218.422 193.952 194.756 266.747 193.704 272.601C192.651 278.455 182.159 317.505 182.251 338.627C182.47 388.646 199.824 452.868 204.89 466.014C209.957 479.16 230.751 522.602 230.751 522.602L238.284 522.991C238.284 522.991 218.479 462.068 215.264 455.57C212.048 449.073 201.564 405.182 201.403 400.844C201.242 396.505 195.656 352.232 196.031 347.941C196.407 343.649 200.188 294.249 200.389 288.862C200.59 283.474 209.86 242.392 209.86 242.392L216.009 215.362L218.422 193.952Z" fill="#CC0037"/>
<path d="M107.741 262.089L105.268 275.06L198.441 297.927L200.857 283.423L107.741 262.089Z" fill="#4D4D4D"/>
<path d="M120.13 520.22L118.162 529.603C118.162 529.603 90.9177 541.744 89.7537 544.127C88.5898 546.509 88.1324 553.923 88.1324 553.923L141.133 553.209L141.974 521.749L120.13 520.22Z" fill="#4D4D4D"/>
<path d="M204.146 521.072L207.741 554.258L206.982 554.191L259.793 553.46C259.793 553.46 257.778 543.728 254.909 541.566C252.041 539.404 228.551 530.469 228.551 530.469L225.957 522.98L204.146 521.072Z" fill="#4D4D4D"/>
<path d="M138.187 520.99L134.231 547.671L86.9739 550.294L87.6947 554.411C87.6947 554.411 120.129 551.302 126.835 551.889C133.54 552.476 140.537 552.818 140.537 552.818L143.283 521.436L138.187 520.99Z" fill="#373737"/>
<path d="M221.806 522.901C221.806 522.901 222.383 534.844 224.458 535.836C226.533 536.828 246.462 540.734 249.423 543.966C252.383 547.198 254.878 549.579 254.878 549.579L207.051 549.448L207.433 554.347L261.57 553.408C261.57 553.408 260.128 545.173 257.657 542.524C255.186 539.876 227.925 530.193 227.925 530.193L226.506 521.691L221.806 522.901Z" fill="#373737"/>
<path d="M105.77 270.584C105.77 270.584 192.992 293.08 193.109 291.739C193.227 290.398 195.47 283.297 195.47 283.297L198.618 284.383L201.568 284.641L197.83 296.476L104.811 275.365L105.77 270.584Z" fill="#373737"/>
<path d="M72.4182 67.9339C72.4182 67.9339 75.7105 61.1948 78.4161 61.1612C81.1218 61.1277 83.9314 62.9951 83.5559 67.2867C83.1805 71.5782 76.0091 91.7619 76.0091 91.7619L53.9281 100.1L45.1704 76.6312C45.1704 76.6312 49.4218 86.7331 54.5516 89.8846C59.6814 93.0361 72.4888 88.7511 72.4888 88.7511C72.4888 88.7511 77.7792 74.6192 78.2016 69.7912C78.624 64.9632 72.4182 67.9339 72.4182 67.9339Z" fill="#373737"/>
<path d="M157.23 84.0027C157.23 84.0027 171.499 93.8998 186.312 91.4119C201.124 88.924 210.623 79.2143 215.222 69.8869C219.822 60.5595 220.841 51.9999 220.727 47.125C220.613 42.2501 221.921 39.6617 221.921 39.6617C221.921 39.6617 227.276 58.7791 221.566 71.523C215.856 84.2669 208.913 92.5784 205.483 94.7108C202.053 96.8432 182.272 100.518 182.272 100.518C182.272 100.518 164.593 98.7011 157.23 84.0027Z" fill="#373737"/>
<path d="M289.292 131.503C289.292 131.503 294.522 142.771 298.066 145.514C301.61 148.256 310.857 150.687 311.755 149.684C312.654 148.682 323.054 131.754 324.76 124.606C326.467 117.458 324.183 112.663 324.183 112.663C324.183 112.663 331.915 113.88 331.563 117.903C331.211 121.927 323.188 142.576 323.188 142.576L313.371 159.015L291.243 146.268L289.292 131.503Z" fill="#373737"/>
<path d="M162.786 97.7319C162.786 97.7319 186.5 110.888 203.297 104.249C220.094 97.6106 227.494 87.1767 231.487 78.607C235.48 70.0373 239.51 57.9573 237.31 49.1161C235.111 40.2749 233.354 32.5536 229.24 27.0584C225.126 21.5633 242.376 40.6403 242.651 49.8537C242.926 59.067 242.078 74.939 239.684 80.6756C237.29 86.4121 226.414 99.5149 224.688 100.715C222.961 101.915 207.948 109.791 207.948 109.791L213.379 115.672C213.379 115.672 222.539 128.365 223.679 133.871C224.819 139.376 237 173.145 238.897 179.257C240.795 185.369 248.285 201.7 248.285 201.7C248.285 201.7 236.192 200.912 228.192 178.05C220.192 155.187 217.869 138.497 213.674 130.833C209.48 123.169 198.939 120.084 190.087 119.31C181.236 118.536 172.301 121.808 166.249 119.927C160.198 118.046 162.31 115.528 162.31 115.528L177.498 108.749L162.786 97.7319Z" fill="#CC0037"/>
<path d="M215.525 223.97C215.525 223.97 236.087 242.256 243.188 244.498C250.29 246.741 265.994 234.061 270.57 225.002C275.146 215.943 312.717 160.31 312.717 160.31L315.282 161.886L292.691 206.937L268.485 242.658C268.485 242.658 259.02 255.073 256.512 255.935C254.004 256.796 247.285 259.452 243.205 256.662C239.125 253.873 215.525 223.97 215.525 223.97Z" fill="#CC0037"/>
<path d="M145.617 340.32C145.617 340.32 127.486 350.964 130.592 402.836C133.698 454.709 142.025 521.18 142.025 521.18L151.195 521.218C151.195 521.218 142.199 409.968 141.147 404.524C140.094 399.081 141.26 346.436 145.617 340.32Z" fill="#CC0037"/>
<path d="M56.7402 146.018C56.7402 146.018 69.8274 193.03 78.8459 199.17C87.8643 205.31 98.9642 205.134 108.4 202.138C114.748 200.121 124.156 192.431 124.156 192.431L120.932 207.438C120.932 207.438 91.7524 213.294 85.7496 212.005C79.7468 210.715 70.5481 202.266 69.3295 198.719C68.111 195.173 56.7402 146.018 56.7402 146.018Z" fill="#CC0037"/>
<path d="M58.5793 98.7828C58.5793 98.7828 59.7033 125.255 62.3018 139.242C64.9003 153.23 67.6556 182.902 67.6556 182.902L49.1769 101.4L58.5793 98.7828Z" fill="#CC0037"/>
<path d="M103.72 163.888C103.72 163.888 119.737 159.938 128.779 152.702C137.821 145.467 151.983 123.39 151.983 123.39L103.72 163.888Z" fill="#CC0037"/>
<path d="M164.026 116.8C164.026 116.8 151.997 127.596 144.036 148.687C136.075 169.777 118.651 216.031 118.651 216.031C118.651 216.031 132.372 124.733 164.026 116.8Z" fill="#CC0037"/>
<path d="M102.365 292.962C102.365 292.962 111.72 317.096 104.499 342.838C97.2779 368.579 98.2076 388.536 100.934 409.797C103.661 431.058 107.436 497.131 107.436 497.131C107.436 497.131 88.184 380.779 93.224 362.491C98.264 344.203 102.365 292.962 102.365 292.962Z" fill="#CC0037"/>
<path d="M189.136 18.9553C189.136 18.9553 174.089 24.1254 165.03 41.1709C155.971 58.2164 155.1 74.3566 156.984 83.7108C158.869 93.0649 146.054 66.5381 152.873 50.3777C159.693 34.2174 164.36 30.3013 169.657 25.3593C174.954 20.4173 189.136 18.9553 189.136 18.9553Z" fill="#616161"/>
<path d="M184.101 33.403C183.683 33.1573 183.186 33.082 182.714 33.1927C182.242 33.3034 181.831 33.5917 181.566 33.9976L174.711 44.5182L162.152 44.8384C161.8 44.8471 161.458 44.9541 161.164 45.1471C160.869 45.3402 160.635 45.6117 160.488 45.9309C160.34 46.2501 160.284 46.6042 160.328 46.9533C160.371 47.3023 160.511 47.6323 160.732 47.9059L168.626 57.6746L165.051 69.711C164.952 70.048 164.948 70.4063 165.041 70.7452C165.134 71.0842 165.32 71.3904 165.578 71.6292C165.836 71.868 166.156 72.0299 166.502 72.0967C166.847 72.1634 167.204 72.1323 167.533 72.0069L179.267 67.5214L189.618 74.6406C189.908 74.84 190.248 74.9545 190.599 74.9711C190.951 74.9876 191.3 74.9056 191.607 74.7342C191.914 74.5629 192.167 74.3091 192.338 74.0015C192.508 73.6939 192.589 73.3448 192.571 72.9937L191.927 60.4541L201.898 52.8179C202.178 52.6043 202.392 52.3167 202.516 51.9878C202.641 51.659 202.67 51.3018 202.602 50.9569C202.534 50.6119 202.371 50.2929 202.131 50.0359C201.891 49.7788 201.583 49.594 201.244 49.5024L189.112 46.237L184.925 34.3985C184.776 33.98 184.484 33.6274 184.101 33.403ZM182.641 39.2537L185.886 48.4255C185.988 48.7137 186.158 48.9729 186.382 49.1807C186.607 49.3886 186.878 49.5388 187.173 49.6184L196.574 52.1498L188.847 58.0643C188.604 58.2501 188.41 58.4921 188.282 58.7696C188.153 59.047 188.094 59.3515 188.11 59.6568L188.607 69.3731L180.589 63.8564C180.337 63.6835 180.047 63.5743 179.744 63.5382C179.44 63.5021 179.133 63.5402 178.847 63.6492L169.755 67.1228L172.525 57.7976C172.612 57.5047 172.626 57.1951 172.566 56.8955C172.507 56.5958 172.375 56.3151 172.183 56.0775L166.067 48.509L175.798 48.2596C176.103 48.2521 176.402 48.1705 176.669 48.0219C176.936 47.8733 177.163 47.662 177.33 47.4063L182.641 39.2537Z" fill="white"/>
</svg>
