<svg xmlns="http://www.w3.org/2000/svg" xmlns:xlink="http://www.w3.org/1999/xlink" version="1.1" width="720" height="340" viewBox="0 0 720 340">
<defs>
<clipPath id="clip_0">
<path transform="matrix(1,0,0,-1,0,340)" d="M0 340H720V0H0Z"/>
</clipPath>
<clipPath id="clip_1">
<path transform="matrix(1,0,0,-1,0,340)" d="M318.858 77.8239H339.037V118.789H318.858Z"/>
</clipPath>
<clipPath id="clip_2">
<path transform="matrix(1,0,0,-1,0,340)" d="M307.794 81.0177H330.718V139.626H307.794Z"/>
</clipPath>
<clipPath id="clip_3">
<path transform="matrix(1,0,0,-1,0,340)" d="M370.672 178.135H397.813V205.504H370.672Z"/>
</clipPath>
<clipPath id="clip_4">
<path transform="matrix(1,0,0,-1,0,340)" d="M315.984 172.87H347.964V195.64H315.984Z"/>
</clipPath>
<clipPath id="clip_5">
<path transform="matrix(1,0,0,-1,0,340)" d="M256.526 93.1652H296.582V150.617H256.526Z"/>
</clipPath>
<clipPath id="clip_6">
<path transform="matrix(1,0,0,-1,0,340)" d="M423.138 97.1868H463.194V154.639H423.138Z"/>
</clipPath>
<clipPath id="clip_7">
<path transform="matrix(1,0,0,-1,0,340)" d="M376.441 81.6747H394.825V86.8454H376.441Z"/>
</clipPath>
<clipPath id="clip_8">
<path transform="matrix(1,0,0,-1,0,340)" d="M302.327 167.303H325.308V184.514H302.327Z"/>
</clipPath>
</defs>
<g>
<g id="layer_1" data-name="Layer 1">
<g clip-path="url(#clip_0)">
<path transform="matrix(1,0,0,-1,262.9746,231.27249)" d="M0 0V21.425C55.779-23.255 135.082-23.283 190.903 21.425V.049C189.519-1.375 188.855-3.09 188.527-4.698 187.868-7.919 187.366-11.062 186.781-14.237 186.151-17.653 185.534-21.059 184.837-24.491 184.643-25.445 184.254-26.502 183.859-27.515 181.885-32.635 177.518-35.891 175.039-33.963 174.175-33.297 173.621-32.165 172.99-31.164 172.387-30.206 171.966-29.036 171.294-28.15 169.911-26.328 167.586-27.28 165.539-30.445 164.714-31.725 164.042-33.079 163.309-34.395 162.597-35.671 161.96-36.977 161.177-38.209 159.36-41.076 156.852-42.212 155.14-40.818 154.219-40.07 153.537-38.965 152.963-37.833 152.134-36.2 151.522-34.381 150.77-32.669 150.481-32.017 150.116-31.411 149.697-30.867 147.482-28.008 142.768-29.089 139.797-33.22 138.71-34.74 138.012-36.509 137.298-38.184 136.658-39.683 136.263-41.22 135.721-42.732 135.523-43.282 135.265-43.838 134.953-44.358 133.536-46.74 130.928-47.395 129.663-45.574 128.953-44.556 128.559-43.265 128.151-42.028 127.575-40.273 127.229-38.398 126.585-36.677 125.619-34.094 124.432-33.676 121.384-34.37 116.763-35.405 113.836-38.315 113.066-43.009 112.432-46.869 112.776-50.605 113.423-54.273 114.493-60.349 115.793-66.344 116.738-72.426 117.18-75.272 117.26-78.265 117.083-81.229 116.803-85.901 114.064-88.916 109.689-89.552 104.367-90.309 101.185-88.191 100.115-83.552 99.328-80.134 99.491-76.656 100.03-73.21 100.995-67.039 102.168-60.879 103.182-54.69 103.817-50.812 104.411-46.904 103.741-43.044 103.545-41.913 103.146-40.773 102.58-39.775 101.408-37.713 98.552-36.699 96.065-37.221 94.557-37.54 93.671-38.549 93.321-39.813 92.732-41.938 92.341-44.112 91.94-46.277 91.525-48.516 91.252-50.78 90.805-53.009 90.641-53.826 90.257-54.638 89.792-55.34 88.198-57.762 84.742-57.534 83.527-54.79 82.657-52.832 82.282-50.665 81.95-48.575 81.446-45.393 81.205-42.195 80.776-39.005 80.667-38.195 80.35-37.367 79.993-36.591 78.831-34.068 76.224-33.046 74.019-34.36 72.932-35.011 71.961-35.997 71.381-37.088 70.213-39.286 69.38-41.676 68.348-43.938 67.693-45.371 67.069-46.846 66.18-48.103 63.861-51.394 59.794-50.926 56.868-46.85 55.402-44.816 54.356-42.498 53.302-40.249 52.277-38.063 51.497-35.816 50.578-33.591 50.196-32.665 49.744-31.745 49.296-30.827 46.628-25.341 43.154-23.282 37.658-23.407 35.039-23.454 33.97-25.393 33.521-27.887 32.939-31.127 33.322-34.783 33.824-38.475 34.441-43.021 35.153-47.591 35.709-52.108 36.045-54.838 36.145-57.5 35.454-59.771 34.621-62.508 32.665-63.366 29.546-62.216 28.716-61.909 27.868-61.546 27.046-61.054 23.23-58.758 21.257-55.504 20.782-51.308 20.389-47.814 20.811-44.836 21.305-41.9 22.091-37.229 23.081-32.686 23.695-27.881 23.982-25.632 23.877-23.026 23.434-20.411 22.533-15.128 18.5-11.906 15.018-10.182 13.762-9.566 13.005-10.118 12.726-11.158 12.237-12.982 11.928-14.968 11.548-16.886 11.296-18.155 11.067-19.445 10.79-20.69 10.703-21.079 10.52-21.39 10.327-21.671 9.802-22.439 9.016-22.645 7.81-21.847 6.626-21.063 5.742-19.767 5.333-18.363 4.69-16.156 4.204-13.979 3.749-11.827 3.241-9.421 2.9-7.084 2.375-4.665 2.03-3.065 1.383-1.413 0 0" fill="#e81c6f"/>
<path transform="matrix(1,0,0,-1,462.6191,196.8516)" d="M0 0C0 0-19.534 21.832-60.325 31.599L-104.639 30.092-105.951-66.631C-104.342-66.558-96.929-66.161-86.464-64.618L-83.306-36.194-22.981-41.939C-23.437-43.092-23.973-44.188-24.568-45.237-12.09-38.343-.816-29.246 6.895-17.235Z" fill="#e81c6f"/>
<path transform="matrix(1,0,0,-1,317.8394,168.125)" d="M0 0-14.938 3.447-21.257-5.171-37.344-12.065-58.027-22.406-67.794-31.599-74.114-39.067C-74.114-39.067-53.956-71.902-10.045-87.655L-7.653-81.762C-7.653-81.762 11.115-51.678 12.878-32.249 12.878-32.249 12.438-70.945 .12-90.857 .419-90.938 .718-91.021 1.019-91.101 6.777-85.104 18.284-71.175 21.198-53.086L14.991-94.051C18.503-94.61 22.12-95.06 25.854-95.371H27.445L29.213 .994Z" fill="#e81c6f"/>
<path transform="matrix(1,0,0,-1,318.8579,259.2256)" d="M0 0C4.448-1.181 9.105-2.176 13.972-2.95L20.179 38.015C17.265 19.926 5.758 5.997 0 0" fill="#e81c6f"/>
<g opacity=".300003">
<g clip-path="url(#clip_1)">
<path transform="matrix(1,0,0,-1,318.8579,259.2256)" d="M0 0C4.448-1.181 9.105-2.176 13.972-2.95L20.179 38.015C17.265 19.926 5.758 5.997 0 0" fill="#780e39"/>
</g>
</g>
<path transform="matrix(1,0,0,-1,330.7178,200.374)" d="M0 0C-1.763-19.429-20.531-49.513-20.531-49.513L-22.923-55.406C-19.667-56.574-16.279-57.648-12.759-58.608-.44-38.696 0 0 0 0" fill="#e81c6f"/>
<g opacity=".300003">
<g clip-path="url(#clip_2)">
<path transform="matrix(1,0,0,-1,330.7178,200.374)" d="M0 0C-1.763-19.429-20.531-49.513-20.531-49.513L-22.923-55.406C-19.667-56.574-16.279-57.648-12.759-58.608-.44-38.696 0 0 0 0" fill="#780e39"/>
</g>
</g>
<path transform="matrix(1,0,0,-1,379.3135,233.0459)" d="M0 0-3.158-28.424C13.478-25.97 37.804-20.61 58.737-9.043 59.333-7.993 59.868-6.897 60.324-5.745Z" fill="#ed4288"/>
<path transform="matrix(1,0,0,-1,343.1182,172.1465)" d="M0 0C0 0-7.469 3.447-10.341 2.872-13.214 2.298-20.683 1.149-20.683 1.149L-32.173 1.723-40.217 7.468C-40.217 7.468-43.664 34.471-41.94 39.642-41.94 39.642-48.26 75.837-41.366 101.69-41.366 101.69-39.067 143.63 9.192 147.652 9.192 147.652 38.493 147.652 52.281 120.075 52.281 120.075 67.794 89.625 63.772 66.07L61.474 38.493 63.197 26.428C63.197 26.428 63.197 20.683 62.623 18.959 62.049 17.235 56.878 11.49 56.878 11.49L59.176 6.894 45.962 2.298 18.385 0Z" fill="#cf1963"/>
<g opacity=".5">
<g clip-path="url(#clip_3)">
<path transform="matrix(1,0,0,-1,370.6719,161.7505)" d="M0 0C0 0 16.518 4.957 27.092 27.254 27.464 19.264 26.41-1.849 0 0" fill="#780e39"/>
</g>
</g>
<g opacity=".5">
<g clip-path="url(#clip_4)">
<path transform="matrix(1,0,0,-1,347.9639,165.668)" d="M0 0C0 0-17.174 1.565-31.98 21.309-30.752 13.404-25.512-7.075 0 0" fill="#780e39"/>
</g>
</g>
<path transform="matrix(1,0,0,-1,338.522,160.082)" d="M0 0C0 0-25.854 7.469-27.002 27.003-27.002 27.003-40.791 93.647-20.683 111.458-20.683 111.458-13.214 127.544 6.32 129.842 6.32 129.842 29.3 135.588 45.961 116.628 45.961 116.628 67.793 79.859 63.198 59.176 63.198 59.176 56.303 20.683 46.537 10.916L34.471 5.171 29.3 .575C29.3 .575 5.171-5.17 0 0" fill="#5c0b2c"/>
<path transform="matrix(1,0,0,-1,384.8975,48.3721)" d="M0 0C-1.937 2.308-14.991 14.661-32.119 14.787V14.789C-32.146 14.789-32.172 14.788-32.198 14.788-32.225 14.788-32.25 14.789-32.277 14.789V14.787C-49.405 14.661-62.458 2.308-64.396 0-77.298-15.366-77.743-36.787-77.152-42.248-75.796-54.769-72.263-71.488-64.589-84.088-56.373-97.579-43.71-106.539-33.279-106.539-32.92-106.539-32.56-106.522-32.198-106.498-31.836-106.522-31.476-106.539-31.117-106.539-20.686-106.539-8.023-97.579 .192-84.088 7.866-71.488 11.4-54.769 12.756-42.248 13.347-36.787 12.902-15.366 0 0" fill="#0a0a0a"/>
<path transform="matrix(1,0,0,-1,306.3931,87.9668)" d="M0 0C0 0 69.191-4.286 91.417 .408L91.031-4.49C91.031-4.49 33.243-8.368 1.16-4.898 1.16-4.898 0-2.653 0 0" fill="#3d3d3d"/>
<path transform="matrix(1,0,0,-1,348.1396,94.2939)" d="M0 0 .387-60.209 4.56-60.576 8.697-60.413 9.857 .204Z" fill="#292929"/>
<path transform="matrix(1,0,0,-1,351.6187,154.9111)" d="M0 0-.193 60.413 2.513 60.617 2.162 0Z" fill="#141414"/>
<path transform="matrix(1,0,0,-1,371.2695,77.9819)" d="M0 0C-10.528 1.917-36.667 0-36.667 0L-36.304 31.82C-26.865 37.379 0 32.204 0 32.204ZM4.356 33.929C4.356 33.929-18.878 41.788-41.023 33.737L-42.294-6.134C-42.294-6.134-10.528-2.3 4.538-6.326Z" fill="#ffffff"/>
<g opacity=".300003">
<g clip-path="url(#clip_5)">
<path transform="matrix(1,0,0,-1,267.2812,195.1279)" d="M0 0C2.598 1.227 10.916 5.745 10.916 5.745L13.789-2.872C13.789-2.872 19.534-44.238 29.301-51.707 29.301-51.707 14.938-50.558 6.894-9.767L6.32-24.13 1.149-12.064-5.171-20.683C-5.171-20.683-20.683-9.767 0 0" fill="#780e39"/>
</g>
</g>
<g opacity=".300003">
<g clip-path="url(#clip_6)">
<path transform="matrix(1,0,0,-1,452.4385,191.1064)" d="M0 0C-2.598 1.227-10.916 5.745-10.916 5.745L-13.789-2.872C-13.789-2.872-19.534-44.238-29.301-51.707-29.301-51.707-14.938-50.558-6.895-9.767L-6.319-24.13-1.149-12.064 5.171-20.683C5.171-20.683 20.683-9.767 0 0" fill="#780e39"/>
</g>
</g>
<path transform="matrix(1,0,0,-1,402.2939,251.1436)" d="M0 0C0-1.745-1.415-3.16-3.16-3.16-4.905-3.16-6.319-1.745-6.319 0-6.319 1.745-4.905 3.16-3.16 3.16-1.415 3.16 0 1.745 0 0" fill="#ed72a4"/>
<g opacity=".300003">
<g clip-path="url(#clip_7)">
<path transform="matrix(1,0,0,-1,377.0146,253.1543)" d="M0 0 17.811-5.171-.574-4.597Z" fill="#780e39"/>
</g>
</g>
<path transform="matrix(1,0,0,-1,358.0557,161.231)" d="M0 0-10.916-1.149-11.003-5.9-.075-5.529Z" fill="#0a0a0a"/>
<path transform="matrix(1,0,0,-1,347.0527,167.1313)" d="M0 0-1.768-96.365H9.279C9.279-96.365 9.399-96.36 9.615-96.351L10.928 .372Z" fill="#0a0a0a"/>
<g opacity=".5">
<g clip-path="url(#clip_8)">
<path transform="matrix(1,0,0,-1,302.3271,155.4858)" d="M0 0 22.981-16.086C22.981-16.086 4.596-23.555 0 0" fill="#780e39"/>
</g>
</g>
</g>
</g>
</g>
</svg>
